<svg xmlns="http://www.w3.org/2000/svg" width="40" height="40" viewBox="0 0 40 40" fill="none" class="pricing-icon" data-v-a2677d4b=""><rect x="-0.000976562" y="0.000488281" width="40" height="40" rx="20" fill="url(#paint0_linear_3359_11523)" data-v-a2677d4b=""></rect><path d="M30.0007 20.0017C30.0007 25.5246 25.5236 30.0017 20.0007 30.0017C14.4779 30.0017 10.0007 25.5246 10.0007 20.0017C10.0007 14.4789 14.4779 10.0017 20.0007 10.0017C25.5236 10.0017 30.0007 14.4789 30.0007 20.0017ZM14.5007 20.0017C14.5007 23.0393 16.9632 25.5017 20.0007 25.5017C23.0383 25.5017 25.5007 23.0393 25.5007 20.0017C25.5007 16.9641 23.0383 14.5017 20.0007 14.5017C16.9632 14.5017 14.5007 16.9641 14.5007 20.0017Z" fill="black" data-v-a2677d4b=""></path><defs data-v-a2677d4b=""><linearGradient id="paint0_linear_3359_11523" x1="19.999" y1="0.000488281" x2="19.999" y2="40.0005" gradientUnits="userSpaceOnUse" data-v-a2677d4b=""><stop stop-color="#938BFF" data-v-a2677d4b=""></stop><stop offset="1" stop-color="#7167FF" stop-opacity="0.52" data-v-a2677d4b=""></stop></linearGradient></defs></svg>