<svg width="71" height="24" viewBox="0 0 71 24" fill="none" xmlns="http://www.w3.org/2000/svg">
<path d="M3.59868 2.59437L9.26629 19.1796H9.49499L15.1626 2.59437H18.4836L11.1555 22.958H7.60578L0.277657 2.59437H3.59868ZM34.0527 7.87988H23.6465V10.3799C23.6881 10.3799 23.7298 10.4007 23.7715 10.4424C23.8131 10.484 23.8496 10.5049 23.8809 10.5049C23.7975 10.5049 23.7506 10.4997 23.7402 10.4893C23.7402 10.4372 24.5163 10.2705 26.0684 9.98926C26.6413 9.88509 27.209 9.83301 27.7715 9.83301C30.1152 9.83301 31.6204 10.4893 32.2871 11.8018C32.735 12.6768 32.959 14.4424 32.959 17.0986V23.1143C32.7402 23.0309 31.9121 22.6924 30.4746 22.0986C30.4746 21.7653 30.4069 21.5518 30.2715 21.458C29.7194 21.7809 29.2663 22.0257 28.9121 22.1924C27.7871 22.7236 26.4798 22.9893 24.9902 22.9893C22.9381 22.9893 21.3548 22.3434 20.2402 21.0518C19.6986 20.4268 19.4277 19.7288 19.4277 18.958C19.4277 18.0934 19.8548 17.234 20.709 16.3799C22.3652 14.7236 24.4225 13.8955 26.8809 13.8955C28.3704 13.8955 29.5684 14.2393 30.4746 14.9268V13.4893C30.0163 12.9059 29.5684 12.5153 29.1309 12.3174C28.7038 12.1195 28.1152 12.0309 27.3652 12.0518C25.6881 12.083 24.1517 12.3903 22.7559 12.9736C22.1309 13.234 21.5215 13.4684 20.9277 13.6768V12.5205C21.0631 12.4059 21.2611 12.234 21.5215 12.0049C21.5631 11.9528 21.5892 11.9215 21.5996 11.9111V7.87988H18.3965V6.00488H34.0527V7.87988ZM30.4746 17.7705C30.4746 17.3122 29.9277 16.9007 28.834 16.5361C27.9277 16.234 27.1725 16.083 26.5684 16.083C24.3704 16.083 22.61 16.8747 21.2871 18.458C20.7559 19.0934 20.4902 19.6143 20.4902 20.0205C20.709 20.7809 21.5684 21.1611 23.0684 21.1611C25.0059 21.1611 26.7767 20.6768 28.3809 19.708C29.7767 18.8643 30.4746 18.2184 30.4746 17.7705ZM50.0465 7.87988H33.2496V6.00488H50.0465V7.87988ZM46.6871 14.7393C46.6871 12.2393 45.5048 10.9893 43.1402 10.9893C41.3902 10.9893 39.9267 11.9059 38.7496 13.7393C37.7079 15.3643 37.1871 17.0934 37.1871 18.9268V23.4736L34.6246 22.1299V10.3799H37.3121V12.2393L38.7027 11.1924C39.9319 10.2653 41.2288 9.80176 42.5934 9.80176C44.4475 9.80176 45.984 10.5205 47.2027 11.958C48.3486 13.3122 48.9215 14.932 48.9215 16.8174C48.9215 19.182 47.9215 21.4528 45.9215 23.6299L42.9059 21.7393C43.8434 20.8122 44.6402 19.958 45.2965 19.1768C46.2236 18.0726 46.6871 16.5934 46.6871 14.7393ZM65.8527 7.87988H49.0559V6.00488H65.8527V7.87988ZM62.4934 14.7393C62.4934 12.2393 61.3111 10.9893 58.9465 10.9893C57.1965 10.9893 55.7329 11.9059 54.5559 13.7393C53.5142 15.3643 52.9934 17.0934 52.9934 18.9268V23.4736L50.4309 22.1299V10.3799H53.1184V12.2393L54.509 11.1924C55.7381 10.2653 57.035 9.80176 58.3996 9.80176C60.2538 9.80176 61.7902 10.5205 63.009 11.958C64.1548 13.3122 64.7277 14.932 64.7277 16.8174C64.7277 19.182 63.7277 21.4528 61.7277 23.6299L58.7121 21.7393C59.6496 20.8122 60.4465 19.958 61.1027 19.1768C62.0298 18.0726 62.4934 16.5934 62.4934 14.7393ZM67.3195 22.958V6.59437H69.8337V22.958H67.3195ZM68.5979 3.8671C68.1078 3.8671 67.6853 3.7002 67.3301 3.36639C66.9821 3.03258 66.8081 2.6313 66.8081 2.16255C66.8081 1.6938 66.9821 1.29252 67.3301 0.958717C67.6853 0.624911 68.1078 0.458008 68.5979 0.458008C69.088 0.458008 69.507 0.624911 69.855 0.958717C70.2101 1.29252 70.3877 1.6938 70.3877 2.16255C70.3877 2.6313 70.2101 3.03258 69.855 3.36639C69.507 3.7002 69.088 3.8671 68.5979 3.8671Z" fill="#E8E9E9"/>
</svg>
