<svg width="1218" height="447" viewBox="0 0 1218 447" fill="none" xmlns="http://www.w3.org/2000/svg">
<g clip-path="url(#clip0_0_3)">
<path d="M778.941 123.277C777.947 123.277 777.094 123.026 776.381 122.523C775.673 122.016 775.128 121.285 774.745 120.331C774.367 119.374 774.178 118.22 774.178 116.872C774.182 115.524 774.373 114.377 774.751 113.431C775.134 112.481 775.679 111.757 776.387 111.258C777.1 110.759 777.951 110.509 778.941 110.509C779.931 110.509 780.782 110.759 781.495 111.258C782.207 111.757 782.752 112.481 783.131 113.431C783.513 114.381 783.704 115.528 783.704 116.872C783.704 118.225 783.513 119.38 783.131 120.337C782.752 121.291 782.207 122.02 781.495 122.523C780.786 123.026 779.935 123.277 778.941 123.277ZM778.941 121.388C779.714 121.388 780.323 121.008 780.77 120.247C781.221 119.482 781.446 118.357 781.446 116.872C781.446 115.89 781.344 115.065 781.138 114.397C780.933 113.729 780.643 113.226 780.269 112.888C779.895 112.546 779.452 112.375 778.941 112.375C778.172 112.375 777.565 112.757 777.118 113.522C776.671 114.282 776.446 115.399 776.442 116.872C776.438 117.858 776.536 118.687 776.738 119.359C776.943 120.032 777.233 120.539 777.607 120.881C777.981 121.219 778.426 121.388 778.941 121.388ZM790.827 123.211C789.958 123.211 789.185 123.062 788.509 122.764C787.837 122.466 787.305 122.052 786.915 121.521C786.525 120.989 786.317 120.376 786.293 119.679H788.563C788.583 120.013 788.694 120.305 788.895 120.555C789.096 120.8 789.364 120.991 789.698 121.128C790.032 121.265 790.406 121.334 790.821 121.334C791.264 121.334 791.656 121.257 791.998 121.104C792.34 120.947 792.608 120.73 792.801 120.452C792.994 120.174 793.089 119.854 793.085 119.492C793.089 119.118 792.992 118.788 792.795 118.502C792.598 118.216 792.312 117.993 791.938 117.832C791.568 117.671 791.121 117.591 790.598 117.591H789.505V115.864H790.598C791.028 115.864 791.405 115.79 791.727 115.641C792.053 115.492 792.308 115.283 792.493 115.013C792.678 114.739 792.769 114.423 792.765 114.065C792.769 113.715 792.69 113.411 792.529 113.153C792.372 112.892 792.149 112.689 791.859 112.544C791.574 112.399 791.238 112.326 790.851 112.326C790.473 112.326 790.123 112.395 789.801 112.532C789.479 112.669 789.219 112.864 789.022 113.117C788.825 113.367 788.72 113.665 788.708 114.011H786.553C786.569 113.319 786.768 112.711 787.151 112.188C787.537 111.66 788.052 111.25 788.696 110.956C789.34 110.658 790.062 110.509 790.863 110.509C791.688 110.509 792.405 110.664 793.012 110.974C793.624 111.28 794.097 111.693 794.431 112.212C794.765 112.731 794.932 113.304 794.932 113.932C794.936 114.629 794.731 115.212 794.316 115.683C793.906 116.154 793.367 116.462 792.698 116.607V116.703C793.568 116.824 794.234 117.146 794.697 117.669C795.164 118.188 795.395 118.834 795.391 119.607C795.391 120.299 795.194 120.919 794.799 121.466C794.409 122.01 793.87 122.436 793.181 122.746C792.497 123.056 791.712 123.211 790.827 123.211Z" fill="white"/>
<path d="M714.119 220.042V207.678H722.16V209.556H716.359V212.912H721.744V214.79H716.359V218.165H722.209V220.042H714.119ZM726.194 214.609V220.042H724.009V210.769H726.098V212.345H726.206C726.419 211.826 726.76 211.413 727.226 211.107C727.697 210.801 728.279 210.649 728.971 210.649C729.611 210.649 730.168 210.785 730.643 211.059C731.122 211.333 731.493 211.729 731.754 212.248C732.02 212.767 732.151 213.397 732.147 214.138V220.042H729.961V214.476C729.961 213.856 729.8 213.371 729.478 213.021C729.16 212.671 728.72 212.496 728.156 212.496C727.774 212.496 727.434 212.58 727.136 212.749C726.842 212.914 726.611 213.154 726.442 213.468C726.277 213.782 726.194 214.162 726.194 214.609ZM738.658 210.769V212.46H733.328V210.769H738.658ZM734.644 208.548H736.829V217.253C736.829 217.547 736.874 217.772 736.962 217.929C737.055 218.082 737.175 218.187 737.324 218.243C737.473 218.299 737.638 218.328 737.819 218.328C737.956 218.328 738.081 218.317 738.194 218.297C738.31 218.277 738.399 218.259 738.459 218.243L738.827 219.951C738.711 219.992 738.544 220.036 738.326 220.084C738.113 220.133 737.851 220.161 737.542 220.169C736.994 220.185 736.501 220.102 736.063 219.921C735.624 219.736 735.276 219.45 735.018 219.064C734.765 218.678 734.64 218.195 734.644 217.615V208.548ZM744.152 220.223C743.222 220.223 742.419 220.03 741.743 219.644C741.071 219.253 740.554 218.702 740.191 217.989C739.829 217.273 739.648 216.43 739.648 215.46C739.648 214.506 739.829 213.669 740.191 212.949C740.558 212.224 741.069 211.661 741.725 211.258C742.381 210.852 743.151 210.649 744.037 210.649C744.608 210.649 745.148 210.741 745.655 210.926C746.166 211.107 746.617 211.389 747.007 211.771C747.401 212.154 747.711 212.641 747.937 213.232C748.162 213.82 748.275 214.52 748.275 215.333V216.003H740.674V214.53H746.18C746.176 214.112 746.085 213.739 745.908 213.413C745.731 213.083 745.484 212.824 745.166 212.635C744.852 212.446 744.486 212.351 744.067 212.351C743.62 212.351 743.228 212.46 742.89 212.677C742.552 212.89 742.288 213.172 742.099 213.522C741.914 213.868 741.819 214.249 741.815 214.663V215.949C741.815 216.488 741.914 216.951 742.111 217.337C742.308 217.72 742.584 218.014 742.938 218.219C743.292 218.42 743.707 218.521 744.182 218.521C744.5 218.521 744.788 218.476 745.045 218.388C745.303 218.295 745.526 218.16 745.715 217.983C745.904 217.806 746.047 217.587 746.144 217.325L748.184 217.555C748.055 218.094 747.81 218.565 747.448 218.967C747.09 219.366 746.631 219.676 746.071 219.897C745.512 220.114 744.872 220.223 744.152 220.223ZM749.784 220.042V210.769H751.903V212.315H751.999C752.168 211.779 752.458 211.367 752.869 211.077C753.283 210.783 753.756 210.636 754.287 210.636C754.408 210.636 754.543 210.642 754.692 210.655C754.845 210.663 754.971 210.677 755.072 210.697V212.707C754.979 212.675 754.833 212.647 754.631 212.623C754.434 212.594 754.243 212.58 754.058 212.58C753.659 212.58 753.301 212.667 752.983 212.84C752.669 213.009 752.422 213.244 752.241 213.546C752.06 213.848 751.969 214.196 751.969 214.591V220.042H749.784ZM760.157 220.042V207.678H764.794C765.743 207.678 766.54 207.855 767.184 208.21C767.832 208.564 768.321 209.051 768.651 209.671C768.985 210.286 769.152 210.987 769.152 211.771C769.152 212.564 768.985 213.269 768.651 213.884C768.317 214.5 767.824 214.985 767.172 215.339C766.52 215.689 765.717 215.864 764.763 215.864H761.691V214.023H764.462C765.017 214.023 765.472 213.927 765.826 213.733C766.18 213.54 766.442 213.275 766.611 212.937C766.784 212.598 766.87 212.21 766.87 211.771C766.87 211.333 766.784 210.946 766.611 210.612C766.442 210.278 766.178 210.019 765.82 209.834C765.466 209.644 765.009 209.55 764.45 209.55H762.397V220.042H760.157ZM770.661 220.042V210.769H772.78V212.315H772.877C773.046 211.779 773.335 211.367 773.746 211.077C774.161 210.783 774.633 210.636 775.165 210.636C775.285 210.636 775.42 210.642 775.569 210.655C775.722 210.663 775.849 210.677 775.949 210.697V212.707C775.857 212.675 775.71 212.647 775.509 212.623C775.312 212.594 775.12 212.58 774.935 212.58C774.537 212.58 774.179 212.667 773.861 212.84C773.547 213.009 773.299 213.244 773.118 213.546C772.937 213.848 772.846 214.196 772.846 214.591V220.042H770.661ZM780.724 220.223C779.819 220.223 779.034 220.024 778.37 219.625C777.706 219.227 777.191 218.67 776.824 217.953C776.462 217.237 776.281 216.4 776.281 215.442C776.281 214.484 776.462 213.645 776.824 212.924C777.191 212.204 777.706 211.645 778.37 211.246C779.034 210.848 779.819 210.649 780.724 210.649C781.63 210.649 782.415 210.848 783.079 211.246C783.743 211.645 784.256 212.204 784.618 212.924C784.984 213.645 785.167 214.484 785.167 215.442C785.167 216.4 784.984 217.237 784.618 217.953C784.256 218.67 783.743 219.227 783.079 219.625C782.415 220.024 781.63 220.223 780.724 220.223ZM780.736 218.472C781.227 218.472 781.638 218.338 781.968 218.068C782.298 217.794 782.543 217.428 782.704 216.969C782.869 216.51 782.952 215.999 782.952 215.436C782.952 214.868 782.869 214.355 782.704 213.896C782.543 213.434 782.298 213.065 781.968 212.792C781.638 212.518 781.227 212.381 780.736 212.381C780.233 212.381 779.815 212.518 779.481 212.792C779.151 213.065 778.903 213.434 778.738 213.896C778.577 214.355 778.497 214.868 778.497 215.436C778.497 215.999 778.577 216.51 778.738 216.969C778.903 217.428 779.151 217.794 779.481 218.068C779.815 218.338 780.233 218.472 780.736 218.472ZM786.682 220.042V210.769H788.771V212.345H788.88C789.073 211.814 789.393 211.399 789.84 211.101C790.286 210.799 790.82 210.649 791.439 210.649C792.067 210.649 792.596 210.801 793.027 211.107C793.462 211.409 793.768 211.822 793.945 212.345H794.041C794.247 211.83 794.593 211.419 795.08 211.113C795.571 210.803 796.152 210.649 796.824 210.649C797.678 210.649 798.374 210.918 798.913 211.457C799.452 211.997 799.722 212.784 799.722 213.818V220.042H797.531V214.156C797.531 213.58 797.378 213.16 797.072 212.894C796.766 212.625 796.392 212.49 795.949 212.49C795.422 212.49 795.009 212.655 794.711 212.985C794.418 213.311 794.271 213.735 794.271 214.259V220.042H792.128V214.065C792.128 213.586 791.983 213.204 791.693 212.918C791.407 212.633 791.033 212.49 790.57 212.49C790.256 212.49 789.97 212.57 789.713 212.731C789.455 212.888 789.25 213.112 789.097 213.401C788.944 213.687 788.868 214.021 788.868 214.403V220.042H786.682ZM801.599 223.519V210.769H803.748V212.303H803.875C803.988 212.077 804.147 211.838 804.352 211.584C804.557 211.327 804.835 211.107 805.185 210.926C805.535 210.741 805.982 210.649 806.525 210.649C807.242 210.649 807.888 210.832 808.463 211.198C809.043 211.56 809.501 212.097 809.84 212.81C810.182 213.518 810.353 214.387 810.353 215.418C810.353 216.436 810.186 217.301 809.852 218.014C809.518 218.726 809.063 219.269 808.487 219.644C807.912 220.018 807.26 220.205 806.531 220.205C806 220.205 805.559 220.116 805.209 219.939C804.859 219.762 804.577 219.549 804.364 219.299C804.155 219.046 803.992 218.806 803.875 218.581H803.784V223.519H801.599ZM803.742 215.406C803.742 216.005 803.827 216.531 803.996 216.981C804.169 217.432 804.416 217.784 804.738 218.038C805.064 218.287 805.459 218.412 805.922 218.412C806.405 218.412 806.809 218.283 807.135 218.026C807.461 217.764 807.706 217.408 807.871 216.957C808.041 216.502 808.125 215.985 808.125 215.406C808.125 214.83 808.043 214.319 807.878 213.872C807.713 213.426 807.467 213.075 807.141 212.822C806.815 212.568 806.409 212.441 805.922 212.441C805.455 212.441 805.058 212.564 804.732 212.81C804.406 213.055 804.159 213.399 803.99 213.842C803.825 214.285 803.742 214.806 803.742 215.406ZM816.514 210.769V212.46H811.184V210.769H816.514ZM812.5 208.548H814.685V217.253C814.685 217.547 814.73 217.772 814.818 217.929C814.911 218.082 815.031 218.187 815.18 218.243C815.329 218.299 815.494 218.328 815.675 218.328C815.812 218.328 815.937 218.317 816.05 218.297C816.166 218.277 816.255 218.259 816.315 218.243L816.683 219.951C816.567 219.992 816.4 220.036 816.182 220.084C815.969 220.133 815.708 220.161 815.398 220.169C814.85 220.185 814.357 220.102 813.919 219.921C813.48 219.736 813.132 219.45 812.874 219.064C812.621 218.678 812.496 218.195 812.5 217.615V208.548ZM823.049 207.099L819.065 221.901H817.151L821.135 207.099H823.049ZM823.657 209.556V207.678H833.521V209.556H829.7V220.042H827.478V209.556H823.657ZM837.747 220.223C836.817 220.223 836.014 220.03 835.338 219.644C834.666 219.253 834.149 218.702 833.786 217.989C833.424 217.273 833.243 216.43 833.243 215.46C833.243 214.506 833.424 213.669 833.786 212.949C834.153 212.224 834.664 211.661 835.32 211.258C835.976 210.852 836.746 210.649 837.632 210.649C838.203 210.649 838.743 210.741 839.25 210.926C839.761 211.107 840.212 211.389 840.602 211.771C840.996 212.154 841.306 212.641 841.532 213.232C841.757 213.82 841.87 214.52 841.87 215.333V216.003H834.269V214.53H839.775C839.771 214.112 839.68 213.739 839.503 213.413C839.326 213.083 839.079 212.824 838.761 212.635C838.447 212.446 838.081 212.351 837.662 212.351C837.215 212.351 836.823 212.46 836.485 212.677C836.147 212.89 835.883 213.172 835.694 213.522C835.509 213.868 835.414 214.249 835.41 214.663V215.949C835.41 216.488 835.509 216.951 835.706 217.337C835.903 217.72 836.179 218.014 836.533 218.219C836.887 218.42 837.302 218.521 837.777 218.521C838.095 218.521 838.382 218.476 838.64 218.388C838.898 218.295 839.121 218.16 839.31 217.983C839.499 217.806 839.642 217.587 839.739 217.325L841.779 217.555C841.65 218.094 841.405 218.565 841.043 218.967C840.685 219.366 840.226 219.676 839.666 219.897C839.107 220.114 838.467 220.223 837.747 220.223ZM844.966 210.769L846.838 214.192L848.739 210.769H851.052L848.256 215.406L851.1 220.042H848.8L846.838 216.704L844.894 220.042H842.576L845.401 215.406L842.648 210.769H844.966ZM857.032 210.769V212.46H851.702V210.769H857.032ZM853.018 208.548H855.203V217.253C855.203 217.547 855.247 217.772 855.336 217.929C855.428 218.082 855.549 218.187 855.698 218.243C855.847 218.299 856.012 218.328 856.193 218.328C856.33 218.328 856.455 218.317 856.567 218.297C856.684 218.277 856.773 218.259 856.833 218.243L857.201 219.951C857.085 219.992 856.918 220.036 856.7 220.084C856.487 220.133 856.225 220.161 855.915 220.169C855.368 220.185 854.875 220.102 854.436 219.921C853.998 219.736 853.65 219.45 853.392 219.064C853.138 218.678 853.014 218.195 853.018 217.615V208.548Z" fill="white"/>
<path d="M982.818 306.042C1030.87 306.042 1069.82 267.091 1069.82 219.042C1069.82 170.993 1030.87 132.042 982.818 132.042C934.769 132.042 895.818 170.993 895.818 219.042C895.818 267.091 934.769 306.042 982.818 306.042Z" fill="#D9D9D9" fill-opacity="0.09"/>
<path d="M982.818 305.792C1030.73 305.792 1069.57 266.953 1069.57 219.042C1069.57 171.131 1030.73 132.292 982.818 132.292C934.907 132.292 896.068 171.131 896.068 219.042C896.068 266.953 934.907 305.792 982.818 305.792Z" stroke="url(#paint0_linear_0_3)" stroke-width="0.5"/>
<mask id="mask0_0_3" style="mask-type:alpha" maskUnits="userSpaceOnUse" x="647" y="86" width="275" height="275">
<path d="M784.818 360.042C860.481 360.042 921.818 298.705 921.818 223.042C921.818 147.379 860.481 86.042 784.818 86.042C709.155 86.042 647.818 147.379 647.818 223.042C647.818 298.705 709.155 360.042 784.818 360.042Z" fill="black"/>
</mask>
<g mask="url(#mask0_0_3)">
<g filter="url(#filter0_f_0_3)">
<path d="M673.818 220.042C735.122 220.042 784.818 173.48 784.818 116.042C784.818 58.6044 735.122 12.042 673.818 12.042C612.514 12.042 562.818 58.6044 562.818 116.042C562.818 173.48 612.514 220.042 673.818 220.042Z" fill="#808DFF"/>
</g>
<g filter="url(#filter1_f_0_3)">
<path d="M665.818 446.042C727.122 446.042 776.818 399.48 776.818 342.042C776.818 284.604 727.122 238.042 665.818 238.042C604.514 238.042 554.818 284.604 554.818 342.042C554.818 399.48 604.514 446.042 665.818 446.042Z" fill="#7167FF" fill-opacity="0.52"/>
</g>
<g filter="url(#filter2_f_0_3)">
<path d="M882.818 454.042C944.122 454.042 993.818 407.48 993.818 350.042C993.818 292.604 944.122 246.042 882.818 246.042C821.514 246.042 771.818 292.604 771.818 350.042C771.818 407.48 821.514 454.042 882.818 454.042Z" fill="#808DFF"/>
</g>
<g filter="url(#filter3_f_0_3)">
<path d="M895.818 203.042C957.122 203.042 1006.82 156.48 1006.82 99.042C1006.82 41.6044 957.122 -4.958 895.818 -4.958C834.514 -4.958 784.818 41.6044 784.818 99.042C784.818 156.48 834.514 203.042 895.818 203.042Z" fill="#7167FF" fill-opacity="0.52"/>
</g>
</g>
<mask id="mask1_0_3" style="mask-type:alpha" maskUnits="userSpaceOnUse" x="202" y="0" width="447" height="447">
<path d="M425.818 446.042C548.977 446.042 648.818 346.201 648.818 223.042C648.818 99.8825 548.977 0.042 425.818 0.042C302.658 0.042 202.818 99.8825 202.818 223.042C202.818 346.201 302.658 446.042 425.818 446.042Z" fill="#141414" fill-opacity="0.42"/>
</mask>
<g mask="url(#mask1_0_3)">
<g filter="url(#filter4_f_0_3)">
<path d="M479.818 391.042C578.677 391.042 658.818 315.378 658.818 222.042C658.818 128.706 578.677 53.042 479.818 53.042C380.959 53.042 300.818 128.706 300.818 222.042C300.818 315.378 380.959 391.042 479.818 391.042Z" fill="#A099FF" fill-opacity="0.79"/>
</g>
<g filter="url(#filter5_df_0_3)">
<path d="M586.318 392.042C646.793 392.042 695.818 313.468 695.818 216.542C695.818 119.616 646.793 41.042 586.318 41.042C525.843 41.042 476.818 119.616 476.818 216.542C476.818 313.468 525.843 392.042 586.318 392.042Z" fill="#7167FF" fill-opacity="0.31"/>
</g>
</g>
<g opacity="0.8">
<path d="M103 331.5C159.609 331.5 205.5 285.609 205.5 229C205.5 172.391 159.609 126.5 103 126.5C46.3908 126.5 0.5 172.391 0.5 229C0.5 285.609 46.3908 331.5 103 331.5Z" stroke="url(#paint1_linear_0_3)"/>
</g>
<path d="M43.2306 210.808H40.9728C40.9084 210.438 40.7897 210.11 40.6166 209.824C40.4436 209.534 40.2283 209.289 39.9707 209.087C39.7131 208.886 39.4193 208.735 39.0893 208.635C38.7633 208.53 38.4111 208.478 38.0328 208.478C37.3607 208.478 36.7651 208.647 36.2459 208.985C35.7267 209.319 35.3202 209.81 35.0264 210.458C34.7326 211.102 34.5857 211.888 34.5857 212.818C34.5857 213.764 34.7326 214.561 35.0264 215.209C35.3243 215.853 35.7307 216.34 36.2459 216.67C36.7651 216.996 37.3587 217.159 38.0268 217.159C38.3971 217.159 38.7432 217.11 39.0651 217.014C39.3911 216.913 39.6829 216.766 39.9405 216.573C40.2021 216.38 40.4214 216.143 40.5985 215.861C40.7796 215.579 40.9044 215.257 40.9728 214.895L43.2306 214.907C43.1461 215.495 42.963 216.046 42.6813 216.561C42.4036 217.076 42.0393 217.531 41.5886 217.925C41.1378 218.316 40.6106 218.622 40.0069 218.843C39.4032 219.06 38.7331 219.169 37.9966 219.169C36.91 219.169 35.94 218.917 35.0868 218.414C34.2336 217.911 33.5615 217.185 33.0705 216.235C32.5795 215.285 32.334 214.146 32.334 212.818C32.334 211.486 32.5815 210.347 33.0765 209.401C33.5715 208.451 34.2457 207.725 35.0989 207.222C35.9521 206.719 36.918 206.467 37.9966 206.467C38.6848 206.467 39.3247 206.564 39.9163 206.757C40.508 206.95 41.0352 207.234 41.498 207.608C41.9609 207.979 42.3412 208.433 42.639 208.973C42.9409 209.508 43.1381 210.12 43.2306 210.808ZM47.0304 213.567V219H44.8451V206.636H46.9822V211.303H47.0908C47.3081 210.78 47.6442 210.367 48.099 210.065C48.5578 209.759 49.1414 209.607 49.8497 209.607C50.4936 209.607 51.0551 209.741 51.534 210.011C52.0129 210.281 52.3832 210.675 52.6448 211.194C52.9104 211.713 53.0432 212.347 53.0432 213.096V219H50.8579V213.434C50.8579 212.81 50.6969 212.325 50.3749 211.979C50.057 211.629 49.6102 211.454 49.0347 211.454C48.6483 211.454 48.3022 211.538 47.9964 211.707C47.6945 211.872 47.4571 212.112 47.284 212.426C47.115 212.74 47.0304 213.12 47.0304 213.567ZM58.9756 219.181C58.0701 219.181 57.2853 218.982 56.6212 218.583C55.9571 218.185 55.442 217.628 55.0757 216.911C54.7135 216.195 54.5324 215.358 54.5324 214.4C54.5324 213.442 54.7135 212.603 55.0757 211.882C55.442 211.162 55.9571 210.603 56.6212 210.204C57.2853 209.806 58.0701 209.607 58.9756 209.607C59.8811 209.607 60.6659 209.806 61.33 210.204C61.9941 210.603 62.5072 211.162 62.8694 211.882C63.2357 212.603 63.4188 213.442 63.4188 214.4C63.4188 215.358 63.2357 216.195 62.8694 216.911C62.5072 217.628 61.9941 218.185 61.33 218.583C60.6659 218.982 59.8811 219.181 58.9756 219.181ZM58.9877 217.43C59.4787 217.43 59.8892 217.296 60.2192 217.026C60.5492 216.752 60.7947 216.386 60.9557 215.927C61.1207 215.468 61.2032 214.957 61.2032 214.394C61.2032 213.826 61.1207 213.313 60.9557 212.854C60.7947 212.392 60.5492 212.023 60.2192 211.75C59.8892 211.476 59.4787 211.339 58.9877 211.339C58.4846 211.339 58.066 211.476 57.732 211.75C57.402 212.023 57.1545 212.392 56.9895 212.854C56.8285 213.313 56.748 213.826 56.748 214.394C56.748 214.957 56.8285 215.468 56.9895 215.927C57.1545 216.386 57.402 216.752 57.732 217.026C58.066 217.296 58.4846 217.43 58.9877 217.43ZM68.9784 219.181C68.0728 219.181 67.288 218.982 66.624 218.583C65.9599 218.185 65.4448 217.628 65.0785 216.911C64.7163 216.195 64.5352 215.358 64.5352 214.4C64.5352 213.442 64.7163 212.603 65.0785 211.882C65.4448 211.162 65.9599 210.603 66.624 210.204C67.288 209.806 68.0728 209.607 68.9784 209.607C69.8839 209.607 70.6687 209.806 71.3328 210.204C71.9968 210.603 72.51 211.162 72.8722 211.882C73.2384 212.603 73.4216 213.442 73.4216 214.4C73.4216 215.358 73.2384 216.195 72.8722 216.911C72.51 217.628 71.9968 218.185 71.3328 218.583C70.6687 218.982 69.8839 219.181 68.9784 219.181ZM68.9905 217.43C69.4815 217.43 69.892 217.296 70.222 217.026C70.552 216.752 70.7975 216.386 70.9585 215.927C71.1235 215.468 71.206 214.957 71.206 214.394C71.206 213.826 71.1235 213.313 70.9585 212.854C70.7975 212.392 70.552 212.023 70.222 211.75C69.892 211.476 69.4815 211.339 68.9905 211.339C68.4874 211.339 68.0688 211.476 67.7348 211.75C67.4048 212.023 67.1572 212.392 66.9922 212.854C66.8312 213.313 66.7508 213.826 66.7508 214.394C66.7508 214.957 66.8312 215.468 66.9922 215.927C67.1572 216.386 67.4048 216.752 67.7348 217.026C68.0688 217.296 68.4874 217.43 68.9905 217.43ZM82.2652 212.178L80.2731 212.396C80.2167 212.194 80.1181 212.005 79.9772 211.828C79.8404 211.651 79.6553 211.508 79.4218 211.4C79.1884 211.291 78.9027 211.237 78.5646 211.237C78.1098 211.237 77.7275 211.335 77.4176 211.532C77.1117 211.73 76.9608 211.985 76.9648 212.299C76.9608 212.569 77.0594 212.788 77.2606 212.957C77.4659 213.126 77.8039 213.265 78.2748 213.374L79.8565 213.712C80.7339 213.901 81.3859 214.201 81.8125 214.611C82.2431 215.022 82.4604 215.559 82.4645 216.223C82.4604 216.807 82.2894 217.322 81.9513 217.768C81.6173 218.211 81.1524 218.557 80.5568 218.807C79.9611 219.056 79.277 219.181 78.5042 219.181C77.3693 219.181 76.4557 218.944 75.7635 218.469C75.0712 217.99 74.6587 217.324 74.5259 216.471L76.6569 216.265C76.7535 216.684 76.9588 217 77.2727 217.213C77.5866 217.426 77.9951 217.533 78.4982 217.533C79.0174 217.533 79.4339 217.426 79.7478 217.213C80.0658 217 80.2248 216.736 80.2248 216.422C80.2248 216.157 80.1221 215.937 79.9169 215.764C79.7156 215.591 79.4017 215.458 78.9751 215.366L77.3934 215.034C76.504 214.849 75.846 214.537 75.4194 214.098C74.9928 213.655 74.7815 213.096 74.7855 212.42C74.7815 211.848 74.9364 211.353 75.2503 210.935C75.5683 210.512 76.009 210.186 76.5724 209.957C77.1399 209.723 77.7939 209.607 78.5344 209.607C79.6211 209.607 80.4763 209.838 81.1001 210.301C81.728 210.764 82.1163 211.389 82.2652 212.178ZM88.0316 219.181C87.1019 219.181 86.299 218.988 85.6229 218.602C84.9508 218.211 84.4336 217.66 84.0714 216.947C83.7092 216.231 83.528 215.388 83.528 214.418C83.528 213.464 83.7092 212.627 84.0714 211.907C84.4376 211.182 84.9487 210.619 85.6048 210.216C86.2608 209.81 87.0315 209.607 87.9169 209.607C88.4884 209.607 89.0277 209.699 89.5348 209.884C90.0459 210.065 90.4967 210.347 90.8871 210.729C91.2815 211.112 91.5914 211.599 91.8168 212.19C92.0421 212.778 92.1548 213.478 92.1548 214.291V214.961H84.5543V213.488H90.06C90.056 213.07 89.9654 212.697 89.7883 212.371C89.6113 212.041 89.3637 211.782 89.0458 211.593C88.7319 211.404 88.3656 211.309 87.9471 211.309C87.5003 211.309 87.1079 211.418 86.7699 211.635C86.4318 211.848 86.1682 212.13 85.979 212.48C85.7939 212.826 85.6993 213.207 85.6953 213.621V214.907C85.6953 215.446 85.7939 215.909 85.9911 216.295C86.1883 216.678 86.464 216.972 86.8182 217.177C87.1723 217.378 87.5869 217.479 88.0618 217.479C88.3797 217.479 88.6675 217.434 88.9251 217.346C89.1826 217.253 89.406 217.118 89.5952 216.941C89.7843 216.764 89.9272 216.545 90.0238 216.283L92.0643 216.513C91.9355 217.052 91.69 217.523 91.3278 217.925C90.9696 218.324 90.5108 218.634 89.9513 218.855C89.3919 219.072 88.752 219.181 88.0316 219.181ZM99.2247 219H96.8341L101.187 206.636H103.952L108.31 219H105.92L102.617 209.172H102.521L99.2247 219ZM99.3032 214.152H105.823V215.951H99.3032V214.152ZM113.476 219V206.636H121.396V208.514H115.715V211.87H120.853V213.748H115.715V219H113.476ZM126.424 219.181C125.495 219.181 124.692 218.988 124.016 218.602C123.344 218.211 122.826 217.66 122.464 216.947C122.102 216.231 121.921 215.388 121.921 214.418C121.921 213.464 122.102 212.627 122.464 211.907C122.83 211.182 123.342 210.619 123.998 210.216C124.654 209.81 125.424 209.607 126.31 209.607C126.881 209.607 127.42 209.699 127.928 209.884C128.439 210.065 128.889 210.347 129.28 210.729C129.674 211.112 129.984 211.599 130.21 212.19C130.435 212.778 130.548 213.478 130.548 214.291V214.961H122.947V213.488H128.453C128.449 213.07 128.358 212.697 128.181 212.371C128.004 212.041 127.757 211.782 127.439 211.593C127.125 211.404 126.758 211.309 126.34 211.309C125.893 211.309 125.501 211.418 125.163 211.635C124.825 211.848 124.561 212.13 124.372 212.48C124.187 212.826 124.092 213.207 124.088 213.621V214.907C124.088 215.446 124.187 215.909 124.384 216.295C124.581 216.678 124.857 216.972 125.211 217.177C125.565 217.378 125.98 217.479 126.455 217.479C126.773 217.479 127.06 217.434 127.318 217.346C127.575 217.253 127.799 217.118 127.988 216.941C128.177 216.764 128.32 216.545 128.417 216.283L130.457 216.513C130.328 217.052 130.083 217.523 129.721 217.925C129.362 218.324 128.904 218.634 128.344 218.855C127.785 219.072 127.145 219.181 126.424 219.181ZM134.725 219.187C134.137 219.187 133.608 219.083 133.137 218.873C132.67 218.66 132.3 218.346 132.026 217.931C131.757 217.517 131.622 217.006 131.622 216.398C131.622 215.875 131.718 215.442 131.912 215.1C132.105 214.758 132.368 214.484 132.702 214.279C133.036 214.074 133.413 213.919 133.831 213.814C134.254 213.706 134.691 213.627 135.141 213.579C135.685 213.522 136.125 213.472 136.463 213.428C136.801 213.38 137.047 213.307 137.2 213.211C137.357 213.11 137.435 212.955 137.435 212.746V212.71C137.435 212.255 137.3 211.903 137.031 211.653C136.761 211.404 136.373 211.279 135.866 211.279C135.33 211.279 134.906 211.395 134.592 211.629C134.282 211.862 134.073 212.138 133.964 212.456L131.924 212.166C132.085 211.603 132.35 211.132 132.72 210.754C133.091 210.371 133.544 210.085 134.079 209.896C134.614 209.703 135.206 209.607 135.854 209.607C136.3 209.607 136.745 209.659 137.188 209.763C137.631 209.868 138.035 210.041 138.401 210.283C138.767 210.52 139.061 210.844 139.283 211.255C139.508 211.665 139.621 212.178 139.621 212.794V219H137.52V217.726H137.447C137.315 217.984 137.127 218.225 136.886 218.451C136.649 218.672 136.349 218.851 135.986 218.988C135.628 219.121 135.208 219.187 134.725 219.187ZM135.292 217.581C135.731 217.581 136.111 217.495 136.433 217.322C136.755 217.145 137.003 216.911 137.176 216.621C137.353 216.332 137.441 216.016 137.441 215.674V214.581C137.373 214.637 137.256 214.69 137.091 214.738C136.93 214.786 136.749 214.828 136.548 214.865C136.347 214.901 136.147 214.933 135.95 214.961C135.753 214.989 135.582 215.014 135.437 215.034C135.111 215.078 134.819 215.15 134.562 215.251C134.304 215.352 134.101 215.493 133.952 215.674C133.803 215.851 133.729 216.08 133.729 216.362C133.729 216.764 133.876 217.068 134.169 217.273C134.463 217.479 134.837 217.581 135.292 217.581ZM146.108 209.727V211.418H140.778V209.727H146.108ZM142.094 207.506H144.279V216.211C144.279 216.505 144.324 216.73 144.412 216.887C144.505 217.04 144.625 217.145 144.774 217.201C144.923 217.257 145.088 217.286 145.269 217.286C145.406 217.286 145.531 217.275 145.644 217.255C145.76 217.235 145.849 217.217 145.909 217.201L146.277 218.909C146.161 218.95 145.994 218.994 145.776 219.042C145.563 219.091 145.302 219.119 144.992 219.127C144.444 219.143 143.951 219.06 143.513 218.879C143.074 218.694 142.726 218.408 142.468 218.022C142.215 217.636 142.09 217.153 142.094 216.573V207.506ZM153.506 215.1V209.727H155.692V219H153.573V217.352H153.476C153.267 217.871 152.923 218.296 152.444 218.626C151.969 218.956 151.383 219.121 150.687 219.121C150.079 219.121 149.542 218.986 149.075 218.716C148.612 218.443 148.25 218.046 147.989 217.527C147.727 217.004 147.596 216.372 147.596 215.631V209.727H149.782V215.293C149.782 215.881 149.942 216.348 150.264 216.694C150.586 217.04 151.009 217.213 151.532 217.213C151.854 217.213 152.166 217.135 152.468 216.978C152.77 216.821 153.017 216.587 153.21 216.277C153.408 215.963 153.506 215.571 153.506 215.1ZM157.599 219V209.727H159.718V211.273H159.814C159.983 210.737 160.273 210.325 160.684 210.035C161.098 209.741 161.571 209.594 162.102 209.594C162.223 209.594 162.358 209.6 162.507 209.613C162.66 209.621 162.787 209.635 162.887 209.655V211.665C162.795 211.633 162.648 211.605 162.447 211.581C162.249 211.552 162.058 211.538 161.873 211.538C161.475 211.538 161.116 211.625 160.798 211.798C160.485 211.967 160.237 212.202 160.056 212.504C159.875 212.806 159.784 213.154 159.784 213.549V219H157.599ZM167.722 219.181C166.793 219.181 165.99 218.988 165.314 218.602C164.642 218.211 164.124 217.66 163.762 216.947C163.4 216.231 163.219 215.388 163.219 214.418C163.219 213.464 163.4 212.627 163.762 211.907C164.128 211.182 164.64 210.619 165.296 210.216C165.952 209.81 166.722 209.607 167.608 209.607C168.179 209.607 168.719 209.699 169.226 209.884C169.737 210.065 170.187 210.347 170.578 210.729C170.972 211.112 171.282 211.599 171.508 212.19C171.733 212.778 171.846 213.478 171.846 214.291V214.961H164.245V213.488H169.751C169.747 213.07 169.656 212.697 169.479 212.371C169.302 212.041 169.055 211.782 168.737 211.593C168.423 211.404 168.056 211.309 167.638 211.309C167.191 211.309 166.799 211.418 166.461 211.635C166.123 211.848 165.859 212.13 165.67 212.48C165.485 212.826 165.39 213.207 165.386 213.621V214.907C165.386 215.446 165.485 215.909 165.682 216.295C165.879 216.678 166.155 216.972 166.509 217.177C166.863 217.378 167.278 217.479 167.753 217.479C168.071 217.479 168.358 217.434 168.616 217.346C168.873 217.253 169.097 217.118 169.286 216.941C169.475 216.764 169.618 216.545 169.715 216.283L171.755 216.513C171.626 217.052 171.381 217.523 171.019 217.925C170.66 218.324 170.202 218.634 169.642 218.855C169.083 219.072 168.443 219.181 167.722 219.181Z" fill="white"/>
<path d="M282.382 219V206.636H290.303V208.514H284.622V211.87H289.759V213.748H284.622V219H282.382ZM295.271 219.181C294.365 219.181 293.58 218.982 292.916 218.583C292.252 218.185 291.737 217.628 291.371 216.911C291.009 216.195 290.828 215.358 290.828 214.4C290.828 213.442 291.009 212.603 291.371 211.882C291.737 211.162 292.252 210.603 292.916 210.204C293.58 209.806 294.365 209.607 295.271 209.607C296.176 209.607 296.961 209.806 297.625 210.204C298.289 210.603 298.802 211.162 299.165 211.882C299.531 212.603 299.714 213.442 299.714 214.4C299.714 215.358 299.531 216.195 299.165 216.911C298.802 217.628 298.289 218.185 297.625 218.583C296.961 218.982 296.176 219.181 295.271 219.181ZM295.283 217.43C295.774 217.43 296.184 217.296 296.514 217.026C296.844 216.752 297.09 216.386 297.251 215.927C297.416 215.468 297.498 214.957 297.498 214.394C297.498 213.826 297.416 213.313 297.251 212.854C297.09 212.392 296.844 212.023 296.514 211.75C296.184 211.476 295.774 211.339 295.283 211.339C294.78 211.339 294.361 211.476 294.027 211.75C293.697 212.023 293.45 212.392 293.285 212.854C293.124 213.313 293.043 213.826 293.043 214.394C293.043 214.957 293.124 215.468 293.285 215.927C293.45 216.386 293.697 216.752 294.027 217.026C294.361 217.296 294.78 217.43 295.283 217.43ZM301.229 219V209.727H303.348V211.273H303.444C303.613 210.737 303.903 210.325 304.314 210.035C304.728 209.741 305.201 209.594 305.732 209.594C305.853 209.594 305.988 209.6 306.137 209.613C306.29 209.621 306.417 209.635 306.517 209.655V211.665C306.425 211.633 306.278 211.605 306.076 211.581C305.879 211.552 305.688 211.538 305.503 211.538C305.105 211.538 304.746 211.625 304.428 211.798C304.114 211.967 303.867 212.202 303.686 212.504C303.505 212.806 303.414 213.154 303.414 213.549V219H301.229ZM315.792 219H311.602V206.636H315.877C317.104 206.636 318.159 206.884 319.04 207.379C319.925 207.87 320.606 208.576 321.08 209.498C321.555 210.42 321.793 211.522 321.793 212.806C321.793 214.094 321.553 215.201 321.074 216.126C320.599 217.052 319.913 217.762 319.016 218.257C318.122 218.752 317.048 219 315.792 219ZM313.842 217.062H315.683C316.545 217.062 317.263 216.905 317.839 216.591C318.414 216.273 318.847 215.8 319.137 215.173C319.426 214.541 319.571 213.752 319.571 212.806C319.571 211.86 319.426 211.076 319.137 210.452C318.847 209.824 318.418 209.355 317.851 209.045C317.287 208.731 316.587 208.574 315.75 208.574H313.842V217.062ZM329.394 215.1V209.727H331.58V219H329.461V217.352H329.364C329.155 217.871 328.811 218.296 328.332 218.626C327.857 218.956 327.271 219.121 326.575 219.121C325.967 219.121 325.43 218.986 324.963 218.716C324.5 218.443 324.138 218.046 323.877 217.527C323.615 217.004 323.484 216.372 323.484 215.631V209.727H325.67V215.293C325.67 215.881 325.831 216.348 326.153 216.694C326.474 217.04 326.897 217.213 327.42 217.213C327.742 217.213 328.054 217.135 328.356 216.978C328.658 216.821 328.905 216.587 329.099 216.277C329.296 215.963 329.394 215.571 329.394 215.1ZM333.584 219V206.636H335.769V211.261H335.859C335.972 211.035 336.131 210.796 336.336 210.542C336.542 210.285 336.819 210.065 337.169 209.884C337.52 209.699 337.966 209.607 338.51 209.607C339.226 209.607 339.872 209.79 340.448 210.156C341.027 210.518 341.486 211.055 341.824 211.768C342.166 212.476 342.337 213.345 342.337 214.376C342.337 215.394 342.17 216.259 341.836 216.972C341.502 217.684 341.047 218.227 340.472 218.602C339.896 218.976 339.244 219.163 338.516 219.163C337.984 219.163 337.544 219.074 337.194 218.897C336.844 218.72 336.562 218.507 336.348 218.257C336.139 218.004 335.976 217.764 335.859 217.539H335.733V219H333.584ZM335.727 214.364C335.727 214.963 335.811 215.489 335.98 215.939C336.153 216.39 336.401 216.742 336.723 216.996C337.049 217.245 337.443 217.37 337.906 217.37C338.389 217.37 338.793 217.241 339.119 216.984C339.445 216.722 339.691 216.366 339.856 215.915C340.025 215.46 340.109 214.943 340.109 214.364C340.109 213.788 340.027 213.277 339.862 212.83C339.697 212.384 339.451 212.033 339.125 211.78C338.799 211.526 338.393 211.4 337.906 211.4C337.439 211.4 337.043 211.522 336.717 211.768C336.391 212.013 336.143 212.357 335.974 212.8C335.809 213.243 335.727 213.764 335.727 214.364ZM343.952 219V206.636H346.137V211.261H346.227C346.34 211.035 346.499 210.796 346.704 210.542C346.91 210.285 347.187 210.065 347.538 209.884C347.888 209.699 348.334 209.607 348.878 209.607C349.594 209.607 350.24 209.79 350.816 210.156C351.395 210.518 351.854 211.055 352.192 211.768C352.534 212.476 352.705 213.345 352.705 214.376C352.705 215.394 352.538 216.259 352.204 216.972C351.87 217.684 351.415 218.227 350.84 218.602C350.264 218.976 349.612 219.163 348.884 219.163C348.352 219.163 347.912 219.074 347.562 218.897C347.212 218.72 346.93 218.507 346.716 218.257C346.507 218.004 346.344 217.764 346.227 217.539H346.101V219H343.952ZM346.095 214.364C346.095 214.963 346.179 215.489 346.348 215.939C346.521 216.39 346.769 216.742 347.091 216.996C347.417 217.245 347.811 217.37 348.274 217.37C348.757 217.37 349.161 217.241 349.487 216.984C349.813 216.722 350.059 216.366 350.224 215.915C350.393 215.46 350.477 214.943 350.477 214.364C350.477 213.788 350.395 213.277 350.23 212.83C350.065 212.384 349.819 212.033 349.493 211.78C349.167 211.526 348.761 211.4 348.274 211.4C347.807 211.4 347.411 211.522 347.085 211.768C346.759 212.013 346.511 212.357 346.342 212.8C346.177 213.243 346.095 213.764 346.095 214.364ZM354.223 219V209.727H356.408V219H354.223ZM355.322 208.411C354.976 208.411 354.678 208.297 354.428 208.067C354.179 207.834 354.054 207.554 354.054 207.228C354.054 206.898 354.179 206.618 354.428 206.389C354.678 206.155 354.976 206.039 355.322 206.039C355.672 206.039 355.97 206.155 356.215 206.389C356.465 206.618 356.589 206.898 356.589 207.228C356.589 207.554 356.465 207.834 356.215 208.067C355.97 208.297 355.672 208.411 355.322 208.411ZM360.501 213.567V219H358.316V209.727H360.404V211.303H360.513C360.726 210.784 361.066 210.371 361.533 210.065C362.004 209.759 362.586 209.607 363.278 209.607C363.918 209.607 364.475 209.743 364.95 210.017C365.429 210.291 365.799 210.687 366.061 211.206C366.327 211.725 366.457 212.355 366.453 213.096V219H364.268V213.434C364.268 212.814 364.107 212.329 363.785 211.979C363.467 211.629 363.026 211.454 362.463 211.454C362.081 211.454 361.741 211.538 361.443 211.707C361.149 211.872 360.918 212.112 360.748 212.426C360.583 212.74 360.501 213.12 360.501 213.567ZM372.368 222.67C371.583 222.67 370.909 222.564 370.345 222.35C369.782 222.141 369.329 221.859 368.987 221.505C368.645 221.151 368.407 220.759 368.275 220.328L370.243 219.851C370.331 220.032 370.46 220.211 370.629 220.388C370.798 220.57 371.025 220.719 371.311 220.835C371.601 220.956 371.965 221.016 372.404 221.016C373.024 221.016 373.537 220.865 373.943 220.564C374.35 220.266 374.553 219.775 374.553 219.091V217.334H374.444C374.332 217.559 374.167 217.791 373.949 218.028C373.736 218.266 373.452 218.465 373.098 218.626C372.748 218.787 372.307 218.867 371.776 218.867C371.064 218.867 370.418 218.7 369.838 218.366C369.263 218.028 368.804 217.525 368.462 216.857C368.124 216.185 367.955 215.344 367.955 214.333C367.955 213.315 368.124 212.456 368.462 211.756C368.804 211.051 369.265 210.518 369.844 210.156C370.424 209.79 371.07 209.607 371.782 209.607C372.325 209.607 372.772 209.699 373.122 209.884C373.476 210.065 373.758 210.285 373.967 210.542C374.177 210.796 374.336 211.035 374.444 211.261H374.565V209.727H376.72V219.151C376.72 219.944 376.531 220.6 376.153 221.119C375.774 221.638 375.257 222.027 374.601 222.284C373.945 222.542 373.201 222.67 372.368 222.67ZM372.386 217.153C372.849 217.153 373.243 217.04 373.569 216.815C373.895 216.589 374.143 216.265 374.312 215.843C374.481 215.42 374.565 214.913 374.565 214.321C374.565 213.738 374.481 213.227 374.312 212.788C374.147 212.349 373.901 212.009 373.575 211.768C373.253 211.522 372.857 211.4 372.386 211.4C371.899 211.4 371.492 211.526 371.166 211.78C370.84 212.033 370.595 212.382 370.43 212.824C370.265 213.263 370.182 213.762 370.182 214.321C370.182 214.889 370.265 215.386 370.43 215.812C370.599 216.235 370.846 216.565 371.172 216.803C371.502 217.036 371.907 217.153 372.386 217.153Z" fill="white"/>
<path d="M520.707 219V206.636H528.627V208.514H522.946V211.87H528.084V213.748H522.946V219H520.707ZM533.595 219.181C532.69 219.181 531.905 218.982 531.241 218.583C530.577 218.185 530.062 217.628 529.695 216.911C529.333 216.195 529.152 215.358 529.152 214.4C529.152 213.442 529.333 212.603 529.695 211.882C530.062 211.162 530.577 210.603 531.241 210.204C531.905 209.806 532.69 209.607 533.595 209.607C534.501 209.607 535.286 209.806 535.95 210.204C536.614 210.603 537.127 211.162 537.489 211.882C537.855 212.603 538.038 213.442 538.038 214.4C538.038 215.358 537.855 216.195 537.489 216.911C537.127 217.628 536.614 218.185 535.95 218.583C535.286 218.982 534.501 219.181 533.595 219.181ZM533.607 217.43C534.098 217.43 534.509 217.296 534.839 217.026C535.169 216.752 535.414 216.386 535.575 215.927C535.74 215.468 535.823 214.957 535.823 214.394C535.823 213.826 535.74 213.313 535.575 212.854C535.414 212.392 535.169 212.023 534.839 211.75C534.509 211.476 534.098 211.339 533.607 211.339C533.104 211.339 532.686 211.476 532.352 211.75C532.022 212.023 531.774 212.392 531.609 212.854C531.448 213.313 531.368 213.826 531.368 214.394C531.368 214.957 531.448 215.468 531.609 215.927C531.774 216.386 532.022 216.752 532.352 217.026C532.686 217.296 533.104 217.43 533.607 217.43ZM539.553 219V209.727H541.672V211.273H541.769C541.938 210.737 542.228 210.325 542.638 210.035C543.053 209.741 543.526 209.594 544.057 209.594C544.177 209.594 544.312 209.6 544.461 209.613C544.614 209.621 544.741 209.635 544.842 209.655V211.665C544.749 211.633 544.602 211.605 544.401 211.581C544.204 211.552 544.012 211.538 543.827 211.538C543.429 211.538 543.071 211.625 542.753 211.798C542.439 211.967 542.191 212.202 542.01 212.504C541.829 212.806 541.739 213.154 541.739 213.549V219H539.553ZM549.383 208.514V206.636H559.248V208.514H555.426V219H553.205V208.514H549.383ZM560.266 208.514V206.636H570.131V208.514H566.309V219H564.088V208.514H560.266ZM578.411 210.035C578.355 209.508 578.117 209.097 577.699 208.804C577.284 208.51 576.745 208.363 576.081 208.363C575.614 208.363 575.214 208.433 574.88 208.574C574.546 208.715 574.29 208.906 574.113 209.148C573.936 209.389 573.845 209.665 573.841 209.975C573.841 210.232 573.9 210.456 574.016 210.645C574.137 210.834 574.3 210.995 574.505 211.128C574.711 211.257 574.938 211.365 575.188 211.454C575.437 211.542 575.689 211.617 575.942 211.677L577.101 211.967C577.568 212.076 578.017 212.223 578.447 212.408C578.882 212.593 579.27 212.826 579.613 213.108C579.959 213.39 580.232 213.73 580.434 214.128C580.635 214.527 580.735 214.993 580.735 215.529C580.735 216.253 580.55 216.891 580.18 217.442C579.81 217.99 579.275 218.418 578.574 218.728C577.878 219.034 577.035 219.187 576.045 219.187C575.083 219.187 574.248 219.038 573.539 218.74C572.835 218.443 572.284 218.008 571.885 217.436C571.491 216.865 571.278 216.169 571.245 215.348H573.449C573.481 215.778 573.614 216.136 573.847 216.422C574.081 216.708 574.385 216.921 574.759 217.062C575.137 217.203 575.56 217.273 576.027 217.273C576.514 217.273 576.94 217.201 577.306 217.056C577.677 216.907 577.967 216.702 578.176 216.44C578.385 216.175 578.492 215.865 578.496 215.511C578.492 215.189 578.397 214.923 578.212 214.714C578.027 214.5 577.767 214.323 577.433 214.183C577.103 214.038 576.717 213.909 576.274 213.796L574.868 213.434C573.849 213.172 573.044 212.776 572.453 212.245C571.865 211.709 571.571 210.999 571.571 210.114C571.571 209.385 571.769 208.747 572.163 208.2C572.561 207.653 573.103 207.228 573.787 206.926C574.471 206.62 575.246 206.467 576.111 206.467C576.989 206.467 577.757 206.62 578.417 206.926C579.081 207.228 579.603 207.649 579.981 208.188C580.359 208.723 580.554 209.339 580.566 210.035H578.411Z" fill="white"/>
<path d="M516.352 252H515.417C515.348 251.652 515.222 251.33 515.04 251.036C514.861 250.737 514.635 250.477 514.363 250.255C514.092 250.033 513.783 249.861 513.439 249.738C513.094 249.615 512.721 249.554 512.32 249.554C511.677 249.554 511.09 249.721 510.56 250.056C510.033 250.391 509.611 250.883 509.292 251.533C508.978 252.179 508.82 252.971 508.82 253.909C508.82 254.854 508.978 255.649 509.292 256.295C509.611 256.942 510.033 257.432 510.56 257.767C511.09 258.098 511.677 258.264 512.32 258.264C512.721 258.264 513.094 258.203 513.439 258.08C513.783 257.958 514.092 257.787 514.363 257.568C514.635 257.346 514.861 257.086 515.04 256.788C515.222 256.489 515.348 256.166 515.417 255.818H516.352C516.269 256.286 516.113 256.721 515.885 257.126C515.659 257.527 515.371 257.878 515.02 258.18C514.672 258.481 514.271 258.717 513.817 258.886C513.362 259.055 512.864 259.139 512.32 259.139C511.465 259.139 510.706 258.925 510.043 258.498C509.38 258.067 508.86 257.46 508.482 256.678C508.108 255.896 507.92 254.973 507.92 253.909C507.92 252.845 508.108 251.922 508.482 251.14C508.86 250.358 509.38 249.753 510.043 249.325C510.706 248.894 511.465 248.679 512.32 248.679C512.864 248.679 513.362 248.763 513.817 248.933C514.271 249.098 514.672 249.334 515.02 249.638C515.371 249.94 515.659 250.291 515.885 250.692C516.113 251.094 516.269 251.529 516.352 252ZM518.957 254.227V259H518.072V248.818H518.957V252.562H519.036C519.215 252.167 519.492 251.853 519.867 251.617C520.244 251.382 520.722 251.264 521.298 251.264C521.815 251.264 522.27 251.37 522.661 251.582C523.052 251.795 523.357 252.108 523.575 252.522C523.794 252.936 523.904 253.447 523.904 254.053V259H523.014V254.108C523.014 253.478 522.838 252.983 522.487 252.621C522.139 252.257 521.668 252.075 521.075 252.075C520.667 252.075 520.304 252.161 519.986 252.333C519.668 252.505 519.416 252.754 519.23 253.079C519.048 253.4 518.957 253.783 518.957 254.227ZM528.922 259.159C528.262 259.159 527.679 258.992 527.172 258.657C526.668 258.322 526.274 257.86 525.989 257.27C525.704 256.677 525.561 255.992 525.561 255.217C525.561 254.434 525.704 253.747 525.989 253.153C526.274 252.557 526.668 252.093 527.172 251.761C527.679 251.427 528.262 251.259 528.922 251.259C529.582 251.259 530.163 251.427 530.667 251.761C531.171 252.096 531.565 252.56 531.85 253.153C532.139 253.747 532.283 254.434 532.283 255.217C532.283 255.992 532.14 256.677 531.855 257.27C531.57 257.86 531.174 258.322 530.667 258.657C530.163 258.992 529.582 259.159 528.922 259.159ZM528.922 258.349C529.452 258.349 529.901 258.206 530.269 257.921C530.637 257.636 530.916 257.257 531.105 256.783C531.297 256.309 531.393 255.787 531.393 255.217C531.393 254.647 531.297 254.123 531.105 253.646C530.916 253.168 530.637 252.786 530.269 252.497C529.901 252.209 529.452 252.065 528.922 252.065C528.395 252.065 527.946 252.209 527.575 252.497C527.207 252.786 526.927 253.168 526.735 253.646C526.546 254.123 526.451 254.647 526.451 255.217C526.451 255.787 526.546 256.309 526.735 256.783C526.927 257.257 527.207 257.636 527.575 257.921C527.943 258.206 528.392 258.349 528.922 258.349ZM536.914 259.159C536.254 259.159 535.671 258.992 535.164 258.657C534.66 258.322 534.265 257.86 533.98 257.27C533.695 256.677 533.553 255.992 533.553 255.217C533.553 254.434 533.695 253.747 533.98 253.153C534.265 252.557 534.66 252.093 535.164 251.761C535.671 251.427 536.254 251.259 536.914 251.259C537.573 251.259 538.155 251.427 538.659 251.761C539.162 252.096 539.557 252.56 539.842 253.153C540.13 253.747 540.274 254.434 540.274 255.217C540.274 255.992 540.132 256.677 539.847 257.27C539.562 257.86 539.166 258.322 538.659 258.657C538.155 258.992 537.573 259.159 536.914 259.159ZM536.914 258.349C537.444 258.349 537.893 258.206 538.261 257.921C538.629 257.636 538.907 257.257 539.096 256.783C539.288 256.309 539.384 255.787 539.384 255.217C539.384 254.647 539.288 254.123 539.096 253.646C538.907 253.168 538.629 252.786 538.261 252.497C537.893 252.209 537.444 252.065 536.914 252.065C536.387 252.065 535.937 252.209 535.566 252.497C535.198 252.786 534.918 253.168 534.726 253.646C534.537 254.123 534.443 254.647 534.443 255.217C534.443 255.787 534.537 256.309 534.726 256.783C534.918 257.257 535.198 257.636 535.566 257.921C535.934 258.206 536.383 258.349 536.914 258.349ZM547.068 253.039L546.257 253.268C546.178 253.039 546.065 252.832 545.919 252.646C545.773 252.461 545.583 252.313 545.347 252.204C545.115 252.094 544.827 252.04 544.482 252.04C543.965 252.04 543.541 252.162 543.21 252.408C542.878 252.653 542.713 252.969 542.713 253.357C542.713 253.685 542.825 253.952 543.051 254.158C543.279 254.36 543.631 254.521 544.105 254.64L545.258 254.923C545.898 255.079 546.377 255.326 546.695 255.664C547.016 256.002 547.177 256.426 547.177 256.937C547.177 257.368 547.058 257.75 546.819 258.085C546.58 258.42 546.247 258.683 545.82 258.876C545.396 259.065 544.903 259.159 544.343 259.159C543.597 259.159 542.983 258.992 542.499 258.657C542.015 258.319 541.705 257.832 541.569 257.195L542.419 256.987C542.529 257.441 542.742 257.784 543.061 258.016C543.382 258.248 543.805 258.364 544.328 258.364C544.915 258.364 545.384 258.233 545.735 257.971C546.087 257.706 546.262 257.374 546.262 256.977C546.262 256.668 546.159 256.41 545.954 256.201C545.749 255.989 545.437 255.833 545.019 255.734L543.771 255.435C543.109 255.276 542.618 255.024 542.3 254.68C541.982 254.335 541.823 253.907 541.823 253.397C541.823 252.976 541.937 252.607 542.166 252.288C542.394 251.967 542.709 251.715 543.11 251.533C543.511 251.35 543.969 251.259 544.482 251.259C545.182 251.259 545.74 251.418 546.158 251.737C546.579 252.051 546.882 252.486 547.068 253.039ZM551.922 259.159C551.209 259.159 550.593 258.993 550.073 258.662C549.552 258.327 549.15 257.865 548.865 257.275C548.583 256.682 548.442 255.999 548.442 255.227C548.442 254.458 548.583 253.775 548.865 253.178C549.15 252.578 549.542 252.109 550.043 251.771C550.547 251.43 551.128 251.259 551.788 251.259C552.202 251.259 552.601 251.335 552.986 251.488C553.37 251.637 553.715 251.867 554.02 252.179C554.328 252.487 554.572 252.877 554.751 253.347C554.93 253.815 555.019 254.368 555.019 255.008V255.445H549.053V254.665H554.115C554.115 254.174 554.015 253.733 553.816 253.342C553.621 252.948 553.347 252.636 552.996 252.408C552.648 252.179 552.245 252.065 551.788 252.065C551.304 252.065 550.878 252.194 550.51 252.452C550.142 252.711 549.854 253.052 549.645 253.477C549.44 253.901 549.335 254.365 549.332 254.869V255.336C549.332 255.942 549.436 256.473 549.645 256.927C549.857 257.378 550.157 257.727 550.545 257.976C550.933 258.224 551.392 258.349 551.922 258.349C552.283 258.349 552.6 258.292 552.872 258.18C553.147 258.067 553.377 257.916 553.563 257.727C553.752 257.535 553.894 257.325 553.99 257.096L554.83 257.369C554.714 257.691 554.524 257.987 554.259 258.259C553.997 258.531 553.669 258.75 553.274 258.915C552.883 259.078 552.432 259.159 551.922 259.159ZM560.546 248.818L563.728 257.792H563.817L566.999 248.818H567.973L564.27 259H563.275L559.571 248.818H560.546ZM571.512 259.159C570.852 259.159 570.269 258.992 569.762 258.657C569.258 258.322 568.863 257.86 568.578 257.27C568.293 256.677 568.151 255.992 568.151 255.217C568.151 254.434 568.293 253.747 568.578 253.153C568.863 252.557 569.258 252.093 569.762 251.761C570.269 251.427 570.852 251.259 571.512 251.259C572.171 251.259 572.753 251.427 573.257 251.761C573.76 252.096 574.155 252.56 574.44 253.153C574.728 253.747 574.872 254.434 574.872 255.217C574.872 255.992 574.73 256.677 574.445 257.27C574.16 257.86 573.764 258.322 573.257 258.657C572.753 258.992 572.171 259.159 571.512 259.159ZM571.512 258.349C572.042 258.349 572.491 258.206 572.859 257.921C573.227 257.636 573.505 257.257 573.694 256.783C573.886 256.309 573.982 255.787 573.982 255.217C573.982 254.647 573.886 254.123 573.694 253.646C573.505 253.168 573.227 252.786 572.859 252.497C572.491 252.209 572.042 252.065 571.512 252.065C570.985 252.065 570.535 252.209 570.164 252.497C569.796 252.786 569.516 253.168 569.324 253.646C569.135 254.123 569.041 254.647 569.041 255.217C569.041 255.787 569.135 256.309 569.324 256.783C569.516 257.257 569.796 257.636 570.164 257.921C570.532 258.206 570.981 258.349 571.512 258.349ZM576.545 259V251.364H577.435V259H576.545ZM576.997 250.051C576.815 250.051 576.659 249.99 576.53 249.867C576.401 249.741 576.336 249.59 576.336 249.415C576.336 249.239 576.401 249.09 576.53 248.967C576.659 248.841 576.815 248.778 576.997 248.778C577.18 248.778 577.335 248.841 577.465 248.967C577.594 249.09 577.659 249.239 577.659 249.415C577.659 249.59 577.594 249.741 577.465 249.867C577.335 249.99 577.18 250.051 576.997 250.051ZM582.478 259.159C581.795 259.159 581.2 258.988 580.693 258.647C580.19 258.306 579.799 257.838 579.52 257.245C579.242 256.652 579.102 255.976 579.102 255.217C579.102 254.451 579.243 253.77 579.525 253.173C579.81 252.577 580.205 252.109 580.708 251.771C581.212 251.43 581.797 251.259 582.463 251.259C582.974 251.259 583.436 251.359 583.85 251.558C584.265 251.753 584.606 252.03 584.874 252.388C585.146 252.742 585.317 253.157 585.387 253.631H584.492C584.399 253.2 584.175 252.832 583.821 252.527C583.469 252.219 583.022 252.065 582.478 252.065C581.991 252.065 581.56 252.197 581.186 252.462C580.811 252.724 580.518 253.09 580.306 253.561C580.097 254.028 579.992 254.57 579.992 255.187C579.992 255.807 580.095 256.355 580.301 256.832C580.506 257.306 580.794 257.678 581.166 257.946C581.54 258.214 581.978 258.349 582.478 258.349C582.816 258.349 583.124 258.286 583.403 258.16C583.685 258.031 583.92 257.848 584.109 257.613C584.301 257.378 584.43 257.098 584.497 256.773H585.392C585.325 257.233 585.161 257.644 584.899 258.006C584.641 258.364 584.304 258.645 583.89 258.851C583.479 259.056 583.008 259.159 582.478 259.159ZM590.096 259.159C589.383 259.159 588.766 258.993 588.246 258.662C587.726 258.327 587.323 257.865 587.038 257.275C586.756 256.682 586.615 255.999 586.615 255.227C586.615 254.458 586.756 253.775 587.038 253.178C587.323 252.578 587.716 252.109 588.216 251.771C588.72 251.43 589.302 251.259 589.961 251.259C590.376 251.259 590.775 251.335 591.159 251.488C591.544 251.637 591.889 251.867 592.194 252.179C592.502 252.487 592.745 252.877 592.924 253.347C593.103 253.815 593.193 254.368 593.193 255.008V255.445H587.227V254.665H592.288C592.288 254.174 592.189 253.733 591.99 253.342C591.794 252.948 591.521 252.636 591.169 252.408C590.821 252.179 590.419 252.065 589.961 252.065C589.477 252.065 589.052 252.194 588.684 252.452C588.316 252.711 588.027 253.052 587.819 253.477C587.613 253.901 587.509 254.365 587.505 254.869V255.336C587.505 255.942 587.61 256.473 587.819 256.927C588.031 257.378 588.331 257.727 588.718 257.976C589.106 258.224 589.565 258.349 590.096 258.349C590.457 258.349 590.773 258.292 591.045 258.18C591.32 258.067 591.551 257.916 591.736 257.727C591.925 257.535 592.068 257.325 592.164 257.096L593.004 257.369C592.888 257.691 592.697 257.987 592.432 258.259C592.17 258.531 591.842 258.75 591.448 258.915C591.057 259.078 590.606 259.159 590.096 259.159Z" fill="white"/>
<path d="M256.062 252.364C256.006 251.797 255.755 251.346 255.311 251.011C254.867 250.677 254.309 250.509 253.636 250.509C253.162 250.509 252.744 250.59 252.383 250.753C252.025 250.915 251.743 251.141 251.538 251.429C251.336 251.714 251.235 252.039 251.235 252.403C251.235 252.672 251.293 252.907 251.409 253.109C251.525 253.312 251.68 253.486 251.876 253.631C252.075 253.774 252.294 253.897 252.532 253.999C252.774 254.102 253.018 254.188 253.263 254.258L254.337 254.566C254.662 254.656 254.986 254.77 255.311 254.909C255.636 255.048 255.933 255.224 256.201 255.436C256.473 255.645 256.69 255.902 256.852 256.207C257.018 256.508 257.101 256.871 257.101 257.295C257.101 257.839 256.96 258.328 256.678 258.762C256.397 259.196 255.992 259.541 255.465 259.796C254.938 260.048 254.307 260.174 253.571 260.174C252.878 260.174 252.277 260.06 251.767 259.831C251.256 259.599 250.855 259.279 250.563 258.871C250.272 258.464 250.108 257.991 250.071 257.455H251.026C251.059 257.856 251.191 258.195 251.423 258.474C251.655 258.752 251.957 258.964 252.328 259.11C252.7 259.253 253.114 259.324 253.571 259.324C254.078 259.324 254.529 259.239 254.923 259.07C255.321 258.898 255.633 258.659 255.858 258.354C256.087 258.046 256.201 257.688 256.201 257.281C256.201 256.936 256.112 256.647 255.933 256.415C255.754 256.18 255.503 255.983 255.182 255.824C254.864 255.665 254.494 255.524 254.073 255.401L252.855 255.043C252.057 254.805 251.437 254.475 250.996 254.054C250.555 253.633 250.335 253.096 250.335 252.443C250.335 251.896 250.481 251.416 250.772 251.001C251.067 250.584 251.465 250.259 251.965 250.027C252.469 249.792 253.034 249.674 253.661 249.674C254.294 249.674 254.854 249.79 255.341 250.022C255.828 250.254 256.214 250.574 256.499 250.982C256.788 251.386 256.942 251.847 256.962 252.364H256.062ZM261.962 260.159C261.249 260.159 260.633 259.993 260.112 259.662C259.592 259.327 259.189 258.865 258.904 258.275C258.622 257.682 258.482 256.999 258.482 256.227C258.482 255.458 258.622 254.775 258.904 254.178C259.189 253.578 259.582 253.109 260.082 252.771C260.586 252.43 261.168 252.259 261.827 252.259C262.242 252.259 262.641 252.335 263.026 252.488C263.41 252.637 263.755 252.867 264.06 253.179C264.368 253.487 264.612 253.877 264.79 254.347C264.969 254.815 265.059 255.368 265.059 256.008V256.445H259.093V255.665H264.154C264.154 255.174 264.055 254.733 263.856 254.342C263.66 253.948 263.387 253.636 263.036 253.408C262.688 253.179 262.285 253.065 261.827 253.065C261.344 253.065 260.918 253.194 260.55 253.452C260.182 253.711 259.893 254.052 259.685 254.477C259.479 254.901 259.375 255.365 259.371 255.869V256.336C259.371 256.942 259.476 257.473 259.685 257.927C259.897 258.378 260.197 258.727 260.585 258.976C260.972 259.224 261.431 259.349 261.962 259.349C262.323 259.349 262.639 259.292 262.911 259.18C263.186 259.067 263.417 258.916 263.602 258.727C263.791 258.535 263.934 258.325 264.03 258.096L264.87 258.369C264.754 258.691 264.563 258.987 264.298 259.259C264.036 259.531 263.708 259.75 263.314 259.915C262.923 260.078 262.472 260.159 261.962 260.159ZM267.614 249.818V260H266.729V249.818H267.614ZM272.763 260.159C272.05 260.159 271.434 259.993 270.914 259.662C270.393 259.327 269.99 258.865 269.705 258.275C269.424 257.682 269.283 256.999 269.283 256.227C269.283 255.458 269.424 254.775 269.705 254.178C269.99 253.578 270.383 253.109 270.884 252.771C271.388 252.43 271.969 252.259 272.629 252.259C273.043 252.259 273.442 252.335 273.827 252.488C274.211 252.637 274.556 252.867 274.861 253.179C275.169 253.487 275.413 253.877 275.592 254.347C275.771 254.815 275.86 255.368 275.86 256.008V256.445H269.894V255.665H274.955C274.955 255.174 274.856 254.733 274.657 254.342C274.462 253.948 274.188 253.636 273.837 253.408C273.489 253.179 273.086 253.065 272.629 253.065C272.145 253.065 271.719 253.194 271.351 253.452C270.983 253.711 270.695 254.052 270.486 254.477C270.281 254.901 270.176 255.365 270.173 255.869V256.336C270.173 256.942 270.277 257.473 270.486 257.927C270.698 258.378 270.998 258.727 271.386 258.976C271.774 259.224 272.233 259.349 272.763 259.349C273.124 259.349 273.441 259.292 273.713 259.18C273.988 259.067 274.218 258.916 274.404 258.727C274.593 258.535 274.735 258.325 274.831 258.096L275.671 258.369C275.555 258.691 275.365 258.987 275.1 259.259C274.838 259.531 274.51 259.75 274.115 259.915C273.724 260.078 273.273 260.159 272.763 260.159ZM280.513 260.159C279.831 260.159 279.236 259.988 278.729 259.647C278.225 259.306 277.834 258.838 277.555 258.245C277.277 257.652 277.138 256.976 277.138 256.217C277.138 255.451 277.279 254.77 277.56 254.173C277.845 253.577 278.24 253.109 278.743 252.771C279.247 252.43 279.832 252.259 280.498 252.259C281.009 252.259 281.471 252.359 281.886 252.558C282.3 252.753 282.641 253.03 282.91 253.388C283.181 253.742 283.352 254.157 283.422 254.631H282.527C282.434 254.2 282.21 253.832 281.856 253.527C281.504 253.219 281.057 253.065 280.513 253.065C280.026 253.065 279.595 253.197 279.221 253.462C278.846 253.724 278.553 254.09 278.341 254.561C278.132 255.028 278.028 255.57 278.028 256.187C278.028 256.807 278.13 257.355 278.336 257.832C278.541 258.306 278.83 258.678 279.201 258.946C279.575 259.214 280.013 259.349 280.513 259.349C280.851 259.349 281.16 259.286 281.438 259.16C281.72 259.031 281.955 258.848 282.144 258.613C282.336 258.378 282.466 258.098 282.532 257.773H283.427C283.36 258.233 283.196 258.644 282.935 259.006C282.676 259.364 282.34 259.645 281.925 259.851C281.514 260.056 281.044 260.159 280.513 260.159ZM288.051 252.364V253.134H284.407V252.364H288.051ZM285.545 250.534H286.435V258.006C286.435 258.325 286.49 258.575 286.599 258.757C286.709 258.936 286.851 259.064 287.027 259.14C287.203 259.213 287.39 259.249 287.589 259.249C287.705 259.249 287.804 259.243 287.887 259.229C287.97 259.213 288.043 259.196 288.106 259.18L288.295 259.98C288.209 260.013 288.103 260.043 287.977 260.07C287.851 260.099 287.695 260.114 287.509 260.114C287.184 260.114 286.871 260.043 286.57 259.901C286.271 259.758 286.026 259.546 285.834 259.264C285.642 258.982 285.545 258.633 285.545 258.215V250.534ZM293.637 249.818L296.819 258.792H296.909L300.09 249.818H301.065L297.361 260H296.367L292.663 249.818H293.637ZM304.603 260.159C303.943 260.159 303.36 259.992 302.853 259.657C302.349 259.322 301.955 258.86 301.67 258.27C301.385 257.677 301.242 256.992 301.242 256.217C301.242 255.434 301.385 254.747 301.67 254.153C301.955 253.557 302.349 253.093 302.853 252.761C303.36 252.427 303.943 252.259 304.603 252.259C305.263 252.259 305.844 252.427 306.348 252.761C306.852 253.096 307.246 253.56 307.531 254.153C307.82 254.747 307.964 255.434 307.964 256.217C307.964 256.992 307.821 257.677 307.536 258.27C307.251 258.86 306.855 259.322 306.348 259.657C305.844 259.992 305.263 260.159 304.603 260.159ZM304.603 259.349C305.133 259.349 305.582 259.206 305.95 258.921C306.318 258.636 306.597 258.257 306.786 257.783C306.978 257.309 307.074 256.787 307.074 256.217C307.074 255.647 306.978 255.123 306.786 254.646C306.597 254.168 306.318 253.786 305.95 253.497C305.582 253.209 305.133 253.065 304.603 253.065C304.076 253.065 303.627 253.209 303.256 253.497C302.888 253.786 302.608 254.168 302.416 254.646C302.227 255.123 302.132 255.647 302.132 256.217C302.132 256.787 302.227 257.309 302.416 257.783C302.608 258.257 302.888 258.636 303.256 258.921C303.624 259.206 304.073 259.349 304.603 259.349ZM309.636 260V252.364H310.526V260H309.636ZM310.089 251.051C309.907 251.051 309.751 250.99 309.622 250.867C309.492 250.741 309.428 250.59 309.428 250.415C309.428 250.239 309.492 250.09 309.622 249.967C309.751 249.841 309.907 249.778 310.089 249.778C310.271 249.778 310.427 249.841 310.556 249.967C310.685 250.09 310.75 250.239 310.75 250.415C310.75 250.59 310.685 250.741 310.556 250.867C310.427 250.99 310.271 251.051 310.089 251.051ZM315.57 260.159C314.887 260.159 314.292 259.988 313.785 259.647C313.281 259.306 312.89 258.838 312.612 258.245C312.333 257.652 312.194 256.976 312.194 256.217C312.194 255.451 312.335 254.77 312.617 254.173C312.902 253.577 313.296 253.109 313.8 252.771C314.304 252.43 314.889 252.259 315.555 252.259C316.065 252.259 316.528 252.359 316.942 252.558C317.356 252.753 317.698 253.03 317.966 253.388C318.238 253.742 318.408 254.157 318.478 254.631H317.583C317.49 254.2 317.267 253.832 316.912 253.527C316.561 253.219 316.113 253.065 315.57 253.065C315.082 253.065 314.652 253.197 314.277 253.462C313.903 253.724 313.609 254.09 313.397 254.561C313.188 255.028 313.084 255.57 313.084 256.187C313.084 256.807 313.187 257.355 313.392 257.832C313.598 258.306 313.886 258.678 314.257 258.946C314.632 259.214 315.069 259.349 315.57 259.349C315.908 259.349 316.216 259.286 316.494 259.16C316.776 259.031 317.011 258.848 317.2 258.613C317.393 258.378 317.522 258.098 317.588 257.773H318.483C318.417 258.233 318.253 258.644 317.991 259.006C317.732 259.364 317.396 259.645 316.982 259.851C316.571 260.056 316.1 260.159 315.57 260.159ZM323.187 260.159C322.474 260.159 321.858 259.993 321.338 259.662C320.817 259.327 320.415 258.865 320.13 258.275C319.848 257.682 319.707 256.999 319.707 256.227C319.707 255.458 319.848 254.775 320.13 254.178C320.415 253.578 320.807 253.109 321.308 252.771C321.812 252.43 322.393 252.259 323.053 252.259C323.467 252.259 323.866 252.335 324.251 252.488C324.635 252.637 324.98 252.867 325.285 253.179C325.593 253.487 325.837 253.877 326.016 254.347C326.195 254.815 326.284 255.368 326.284 256.008V256.445H320.318V255.665H325.38C325.38 255.174 325.28 254.733 325.081 254.342C324.886 253.948 324.612 253.636 324.261 253.408C323.913 253.179 323.51 253.065 323.053 253.065C322.569 253.065 322.143 253.194 321.775 253.452C321.407 253.711 321.119 254.052 320.91 254.477C320.705 254.901 320.6 255.365 320.597 255.869V256.336C320.597 256.942 320.701 257.473 320.91 257.927C321.122 258.378 321.422 258.727 321.81 258.976C322.198 259.224 322.657 259.349 323.187 259.349C323.548 259.349 323.865 259.292 324.137 259.18C324.412 259.067 324.642 258.916 324.828 258.727C325.017 258.535 325.159 258.325 325.255 258.096L326.095 258.369C325.979 258.691 325.789 258.987 325.524 259.259C325.262 259.531 324.934 259.75 324.539 259.915C324.148 260.078 323.697 260.159 323.187 260.159ZM331.796 260V249.818H337.687V250.653H332.726V254.487H337.225V255.322H332.726V260H331.796ZM339.453 260V252.364H340.313V253.537H340.378C340.53 253.152 340.795 252.843 341.173 252.607C341.554 252.369 341.985 252.249 342.466 252.249C342.539 252.249 342.62 252.251 342.709 252.254C342.799 252.258 342.874 252.261 342.933 252.264V253.164C342.893 253.157 342.824 253.147 342.724 253.134C342.625 253.121 342.517 253.114 342.401 253.114C342.003 253.114 341.649 253.199 341.337 253.368C341.029 253.534 340.785 253.764 340.606 254.059C340.427 254.354 340.338 254.69 340.338 255.068V260H339.453ZM346.899 260.159C346.239 260.159 345.656 259.992 345.149 259.657C344.645 259.322 344.251 258.86 343.966 258.27C343.681 257.677 343.538 256.992 343.538 256.217C343.538 255.434 343.681 254.747 343.966 254.153C344.251 253.557 344.645 253.093 345.149 252.761C345.656 252.427 346.239 252.259 346.899 252.259C347.558 252.259 348.14 252.427 348.644 252.761C349.148 253.096 349.542 253.56 349.827 254.153C350.116 254.747 350.26 255.434 350.26 256.217C350.26 256.992 350.117 257.677 349.832 258.27C349.547 258.86 349.151 259.322 348.644 259.657C348.14 259.992 347.558 260.159 346.899 260.159ZM346.899 259.349C347.429 259.349 347.878 259.206 348.246 258.921C348.614 258.636 348.893 258.257 349.081 257.783C349.274 257.309 349.37 256.787 349.37 256.217C349.37 255.647 349.274 255.123 349.081 254.646C348.893 254.168 348.614 253.786 348.246 253.497C347.878 253.209 347.429 253.065 346.899 253.065C346.372 253.065 345.923 253.209 345.552 253.497C345.184 253.786 344.904 254.168 344.711 254.646C344.522 255.123 344.428 255.647 344.428 256.217C344.428 256.787 344.522 257.309 344.711 257.783C344.904 258.257 345.184 258.636 345.552 258.921C345.92 259.206 346.369 259.349 346.899 259.349ZM351.922 260V252.364H352.782V253.537H352.862C353.014 253.143 353.268 252.833 353.623 252.607C353.981 252.379 354.41 252.264 354.91 252.264C355.437 252.264 355.87 252.388 356.208 252.637C356.549 252.882 356.804 253.22 356.973 253.651H357.038C357.21 253.227 357.491 252.891 357.878 252.642C358.269 252.39 358.743 252.264 359.3 252.264C360.009 252.264 360.57 252.488 360.981 252.935C361.392 253.379 361.597 254.029 361.597 254.884V260H360.712V254.884C360.712 254.281 360.558 253.829 360.25 253.527C359.942 253.225 359.536 253.075 359.032 253.075C358.448 253.075 357.999 253.254 357.684 253.612C357.37 253.969 357.212 254.424 357.212 254.974V260H356.307V254.805C356.307 254.288 356.163 253.87 355.875 253.552C355.586 253.234 355.18 253.075 354.657 253.075C354.305 253.075 353.989 253.161 353.707 253.333C353.429 253.505 353.208 253.746 353.046 254.054C352.887 254.359 352.807 254.71 352.807 255.108V260H351.922ZM367.501 260V249.818H368.431V259.165H373.283V260H367.501ZM374.922 260V252.364H375.812V260H374.922ZM375.375 251.051C375.192 251.051 375.037 250.99 374.907 250.867C374.778 250.741 374.714 250.59 374.714 250.415C374.714 250.239 374.778 250.09 374.907 249.967C375.037 249.841 375.192 249.778 375.375 249.778C375.557 249.778 375.713 249.841 375.842 249.967C375.971 250.09 376.036 250.239 376.036 250.415C376.036 250.59 375.971 250.741 375.842 250.867C375.713 250.99 375.557 251.051 375.375 251.051ZM378.057 260V249.818H378.947V253.82H379.026C379.126 253.592 379.268 253.356 379.454 253.114C379.643 252.872 379.889 252.67 380.194 252.508C380.503 252.342 380.89 252.259 381.358 252.259C381.984 252.259 382.534 252.425 383.008 252.756C383.482 253.085 383.852 253.545 384.117 254.138C384.382 254.728 384.515 255.416 384.515 256.202C384.515 256.991 384.382 257.682 384.117 258.275C383.855 258.868 383.487 259.33 383.013 259.662C382.543 259.993 381.996 260.159 381.373 260.159C380.909 260.159 380.521 260.076 380.209 259.911C379.901 259.745 379.652 259.541 379.464 259.299C379.275 259.054 379.129 258.815 379.026 258.583H378.917V260H378.057ZM378.932 256.187C378.932 256.803 379.023 257.35 379.205 257.827C379.391 258.301 379.656 258.674 380.001 258.946C380.349 259.214 380.769 259.349 381.263 259.349C381.77 259.349 382.2 259.21 382.551 258.931C382.902 258.649 383.169 258.27 383.351 257.793C383.534 257.315 383.625 256.78 383.625 256.187C383.625 255.6 383.534 255.071 383.351 254.601C383.172 254.13 382.907 253.757 382.556 253.482C382.205 253.204 381.774 253.065 381.263 253.065C380.766 253.065 380.344 253.199 379.996 253.467C379.651 253.732 379.387 254.1 379.205 254.571C379.023 255.038 378.932 255.577 378.932 256.187ZM386.179 260V252.364H387.039V253.537H387.103C387.256 253.152 387.521 252.843 387.899 252.607C388.28 252.369 388.711 252.249 389.191 252.249C389.264 252.249 389.345 252.251 389.435 252.254C389.524 252.258 389.599 252.261 389.659 252.264V253.164C389.619 253.157 389.549 253.147 389.45 253.134C389.35 253.121 389.243 253.114 389.127 253.114C388.729 253.114 388.374 253.199 388.063 253.368C387.755 253.534 387.511 253.764 387.332 254.059C387.153 254.354 387.064 254.69 387.064 255.068V260H386.179ZM393.022 260.174C392.561 260.174 392.14 260.085 391.759 259.906C391.378 259.723 391.074 259.461 390.849 259.12C390.624 258.775 390.511 258.358 390.511 257.867C390.511 257.489 390.582 257.171 390.725 256.913C390.867 256.654 391.069 256.442 391.331 256.276C391.593 256.111 391.903 255.98 392.261 255.884C392.619 255.787 393.013 255.713 393.444 255.66C393.872 255.607 394.233 255.56 394.528 255.521C394.826 255.481 395.053 255.418 395.209 255.332C395.365 255.246 395.443 255.106 395.443 254.914V254.735C395.443 254.215 395.287 253.805 394.975 253.507C394.667 253.205 394.223 253.055 393.643 253.055C393.093 253.055 392.644 253.176 392.296 253.418C391.951 253.66 391.709 253.945 391.57 254.273L390.73 253.969C390.902 253.552 391.141 253.219 391.446 252.97C391.751 252.718 392.092 252.538 392.47 252.428C392.848 252.316 393.23 252.259 393.618 252.259C393.91 252.259 394.213 252.297 394.528 252.374C394.846 252.45 395.141 252.582 395.413 252.771C395.685 252.957 395.905 253.217 396.074 253.552C396.243 253.883 396.328 254.304 396.328 254.815V260H395.443V258.792H395.388C395.282 259.017 395.125 259.236 394.916 259.448C394.707 259.66 394.445 259.834 394.13 259.97C393.815 260.106 393.446 260.174 393.022 260.174ZM393.141 259.364C393.612 259.364 394.019 259.259 394.364 259.05C394.709 258.842 394.974 258.565 395.159 258.22C395.348 257.872 395.443 257.489 395.443 257.072V255.968C395.377 256.031 395.265 256.087 395.11 256.137C394.957 256.187 394.78 256.232 394.578 256.271C394.379 256.308 394.18 256.339 393.981 256.366C393.782 256.392 393.603 256.415 393.444 256.435C393.013 256.488 392.645 256.571 392.341 256.684C392.036 256.797 391.802 256.952 391.64 257.151C391.477 257.347 391.396 257.599 391.396 257.907C391.396 258.371 391.562 258.731 391.893 258.986C392.225 259.238 392.64 259.364 393.141 259.364ZM398.402 260V252.364H399.262V253.537H399.327C399.479 253.152 399.744 252.843 400.122 252.607C400.503 252.369 400.934 252.249 401.415 252.249C401.487 252.249 401.569 252.251 401.658 252.254C401.748 252.258 401.822 252.261 401.882 252.264V253.164C401.842 253.157 401.773 253.147 401.673 253.134C401.574 253.121 401.466 253.114 401.35 253.114C400.952 253.114 400.598 253.199 400.286 253.368C399.978 253.534 399.734 253.764 399.555 254.059C399.376 254.354 399.287 254.69 399.287 255.068V260H398.402ZM403.961 262.864C403.785 262.864 403.621 262.847 403.469 262.814C403.316 262.781 403.195 262.744 403.106 262.705L403.344 261.924C403.646 262.017 403.915 262.05 404.15 262.023C404.385 262 404.594 261.894 404.776 261.705C404.959 261.52 405.121 261.235 405.263 260.85L405.542 260.075L402.733 252.364H403.692L405.96 258.832H406.029L408.296 252.364H409.256L406.024 261.208C405.888 261.576 405.721 261.883 405.522 262.128C405.323 262.376 405.093 262.56 404.831 262.68C404.572 262.802 404.282 262.864 403.961 262.864Z" fill="white"/>
<path d="M329 355C396.379 355 451 300.379 451 233C451 165.621 396.379 111 329 111C261.621 111 207 165.621 207 233C207 300.379 261.621 355 329 355Z" stroke="url(#paint2_linear_0_3)" stroke-width="2"/>
<path d="M550 331C604.124 331 648 287.124 648 233C648 178.876 604.124 135 550 135C495.876 135 452 178.876 452 233C452 287.124 495.876 331 550 331Z" stroke="white" stroke-opacity="0.08" stroke-width="2"/>
<path d="M1139 311.5C1182.35 311.5 1217.5 276.354 1217.5 233C1217.5 189.646 1182.35 154.5 1139 154.5C1095.65 154.5 1060.5 189.646 1060.5 233C1060.5 276.354 1095.65 311.5 1139 311.5Z" stroke="#34343C" stroke-opacity="0.8"/>
<path d="M950.6 219V206.636H955.237C956.187 206.636 956.983 206.801 957.627 207.131C958.275 207.461 958.764 207.924 959.094 208.52C959.428 209.112 959.595 209.802 959.595 210.591C959.595 211.383 959.426 212.072 959.088 212.655C958.754 213.235 958.261 213.683 957.609 214.001C956.957 214.315 956.156 214.472 955.207 214.472H951.904V212.613H954.905C955.46 212.613 955.915 212.536 956.269 212.384C956.623 212.227 956.885 211.999 957.054 211.701C957.227 211.4 957.313 211.029 957.313 210.591C957.313 210.152 957.227 209.778 957.054 209.468C956.881 209.154 956.617 208.916 956.263 208.755C955.909 208.59 955.452 208.508 954.893 208.508H952.84V219H950.6ZM956.987 213.398L960.048 219H957.549L954.542 213.398H956.987ZM965.193 219.181C964.263 219.181 963.46 218.988 962.784 218.602C962.112 218.211 961.595 217.66 961.233 216.947C960.87 216.231 960.689 215.388 960.689 214.418C960.689 213.464 960.87 212.627 961.233 211.907C961.599 211.182 962.11 210.619 962.766 210.216C963.422 209.81 964.193 209.607 965.078 209.607C965.65 209.607 966.189 209.699 966.696 209.884C967.207 210.065 967.658 210.347 968.048 210.729C968.443 211.112 968.753 211.599 968.978 212.19C969.203 212.778 969.316 213.478 969.316 214.291V214.961H961.715V213.488H967.221C967.217 213.07 967.127 212.697 966.949 212.371C966.772 212.041 966.525 211.782 966.207 211.593C965.893 211.404 965.527 211.309 965.108 211.309C964.661 211.309 964.269 211.418 963.931 211.635C963.593 211.848 963.329 212.13 963.14 212.48C962.955 212.826 962.86 213.207 962.856 213.621V214.907C962.856 215.446 962.955 215.909 963.152 216.295C963.349 216.678 963.625 216.972 963.979 217.177C964.333 217.378 964.748 217.479 965.223 217.479C965.541 217.479 965.829 217.434 966.086 217.346C966.344 217.253 966.567 217.118 966.756 216.941C966.945 216.764 967.088 216.545 967.185 216.283L969.225 216.513C969.097 217.052 968.851 217.523 968.489 217.925C968.131 218.324 967.672 218.634 967.112 218.855C966.553 219.072 965.913 219.181 965.193 219.181ZM975.521 209.727V211.418H970.04V209.727H975.521ZM971.41 219V208.852C971.41 208.228 971.539 207.709 971.797 207.294C972.058 206.88 972.408 206.57 972.847 206.365C973.286 206.159 973.773 206.057 974.308 206.057C974.686 206.057 975.022 206.087 975.316 206.147C975.61 206.208 975.827 206.262 975.968 206.31L975.534 208.001C975.441 207.973 975.324 207.944 975.183 207.916C975.043 207.884 974.886 207.868 974.713 207.868C974.306 207.868 974.018 207.967 973.849 208.164C973.684 208.357 973.602 208.635 973.602 208.997V219H971.41ZM976.893 219V209.727H979.078V219H976.893ZM977.992 208.411C977.646 208.411 977.348 208.297 977.098 208.067C976.849 207.834 976.724 207.554 976.724 207.228C976.724 206.898 976.849 206.618 977.098 206.389C977.348 206.155 977.646 206.039 977.992 206.039C978.342 206.039 978.64 206.155 978.885 206.389C979.135 206.618 979.259 206.898 979.259 207.228C979.259 207.554 979.135 207.834 978.885 208.067C978.64 208.297 978.342 208.411 977.992 208.411ZM983.171 213.567V219H980.986V209.727H983.074V211.303H983.183C983.396 210.784 983.736 210.371 984.203 210.065C984.674 209.759 985.256 209.607 985.948 209.607C986.588 209.607 987.145 209.743 987.62 210.017C988.099 210.291 988.469 210.687 988.731 211.206C988.997 211.725 989.127 212.355 989.123 213.096V219H986.938V213.434C986.938 212.814 986.777 212.329 986.455 211.979C986.137 211.629 985.696 211.454 985.133 211.454C984.751 211.454 984.411 211.538 984.113 211.707C983.819 211.872 983.587 212.112 983.418 212.426C983.253 212.74 983.171 213.12 983.171 213.567ZM991.005 219V209.727H993.19V219H991.005ZM992.104 208.411C991.758 208.411 991.46 208.297 991.21 208.067C990.961 207.834 990.836 207.554 990.836 207.228C990.836 206.898 990.961 206.618 991.21 206.389C991.46 206.155 991.758 206.039 992.104 206.039C992.454 206.039 992.752 206.155 992.997 206.389C993.247 206.618 993.371 206.898 993.371 207.228C993.371 207.554 993.247 207.834 992.997 208.067C992.752 208.297 992.454 208.411 992.104 208.411ZM997.283 213.567V219H995.098V209.727H997.186V211.303H997.295C997.508 210.784 997.848 210.371 998.315 210.065C998.786 209.759 999.368 209.607 1000.06 209.607C1000.7 209.607 1001.26 209.743 1001.73 210.017C1002.21 210.291 1002.58 210.687 1002.84 211.206C1003.11 211.725 1003.24 212.355 1003.24 213.096V219H1001.05V213.434C1001.05 212.814 1000.89 212.329 1000.57 211.979C1000.25 211.629 999.808 211.454 999.245 211.454C998.863 211.454 998.523 211.538 998.225 211.707C997.931 211.872 997.699 212.112 997.53 212.426C997.365 212.74 997.283 213.12 997.283 213.567ZM1009.15 222.67C1008.36 222.67 1007.69 222.564 1007.13 222.35C1006.56 222.141 1006.11 221.859 1005.77 221.505C1005.43 221.151 1005.19 220.759 1005.06 220.328L1007.02 219.851C1007.11 220.032 1007.24 220.211 1007.41 220.388C1007.58 220.57 1007.81 220.719 1008.09 220.835C1008.38 220.956 1008.75 221.016 1009.19 221.016C1009.81 221.016 1010.32 220.865 1010.73 220.564C1011.13 220.266 1011.33 219.775 1011.33 219.091V217.334H1011.23C1011.11 217.559 1010.95 217.791 1010.73 218.028C1010.52 218.266 1010.23 218.465 1009.88 218.626C1009.53 218.787 1009.09 218.867 1008.56 218.867C1007.85 218.867 1007.2 218.7 1006.62 218.366C1006.04 218.028 1005.59 217.525 1005.24 216.857C1004.91 216.185 1004.74 215.344 1004.74 214.333C1004.74 213.315 1004.91 212.456 1005.24 211.756C1005.59 211.051 1006.05 210.518 1006.63 210.156C1007.21 209.79 1007.85 209.607 1008.56 209.607C1009.11 209.607 1009.55 209.699 1009.9 209.884C1010.26 210.065 1010.54 210.285 1010.75 210.542C1010.96 210.796 1011.12 211.035 1011.23 211.261H1011.35V209.727H1013.5V219.151C1013.5 219.944 1013.31 220.6 1012.93 221.119C1012.56 221.638 1012.04 222.027 1011.38 222.284C1010.73 222.542 1009.98 222.67 1009.15 222.67ZM1009.17 217.153C1009.63 217.153 1010.02 217.04 1010.35 216.815C1010.68 216.589 1010.92 216.265 1011.09 215.843C1011.26 215.42 1011.35 214.913 1011.35 214.321C1011.35 213.738 1011.26 213.227 1011.09 212.788C1010.93 212.349 1010.68 212.009 1010.36 211.768C1010.04 211.522 1009.64 211.4 1009.17 211.4C1008.68 211.4 1008.27 211.526 1007.95 211.78C1007.62 212.033 1007.38 212.382 1007.21 212.824C1007.05 213.263 1006.96 213.762 1006.96 214.321C1006.96 214.889 1007.05 215.386 1007.21 215.812C1007.38 216.235 1007.63 216.565 1007.95 216.803C1008.28 217.036 1008.69 217.153 1009.17 217.153Z" fill="white"/>
<path d="M1104.49 220H1100.3V207.636H1104.57C1105.8 207.636 1106.85 207.884 1107.73 208.379C1108.62 208.87 1109.3 209.576 1109.77 210.498C1110.25 211.42 1110.49 212.522 1110.49 213.806C1110.49 215.094 1110.25 216.201 1109.77 217.126C1109.29 218.052 1108.61 218.762 1107.71 219.257C1106.82 219.752 1105.74 220 1104.49 220ZM1102.54 218.062H1104.38C1105.24 218.062 1105.96 217.905 1106.53 217.591C1107.11 217.273 1107.54 216.8 1107.83 216.173C1108.12 215.541 1108.26 214.752 1108.26 213.806C1108.26 212.86 1108.12 212.076 1107.83 211.452C1107.54 210.824 1107.11 210.355 1106.54 210.045C1105.98 209.731 1105.28 209.574 1104.44 209.574H1102.54V218.062ZM1116.22 220.181C1115.32 220.181 1114.53 219.982 1113.87 219.583C1113.2 219.185 1112.69 218.628 1112.32 217.911C1111.96 217.195 1111.78 216.358 1111.78 215.4C1111.78 214.442 1111.96 213.603 1112.32 212.882C1112.69 212.162 1113.2 211.603 1113.87 211.204C1114.53 210.806 1115.32 210.607 1116.22 210.607C1117.13 210.607 1117.91 210.806 1118.58 211.204C1119.24 211.603 1119.75 212.162 1120.12 212.882C1120.48 213.603 1120.67 214.442 1120.67 215.4C1120.67 216.358 1120.48 217.195 1120.12 217.911C1119.75 218.628 1119.24 219.185 1118.58 219.583C1117.91 219.982 1117.13 220.181 1116.22 220.181ZM1116.23 218.43C1116.73 218.43 1117.14 218.296 1117.47 218.026C1117.8 217.752 1118.04 217.386 1118.2 216.927C1118.37 216.468 1118.45 215.957 1118.45 215.394C1118.45 214.826 1118.37 214.313 1118.2 213.854C1118.04 213.392 1117.8 213.023 1117.47 212.75C1117.14 212.476 1116.73 212.339 1116.23 212.339C1115.73 212.339 1115.31 212.476 1114.98 212.75C1114.65 213.023 1114.4 213.392 1114.24 213.854C1114.08 214.313 1113.99 214.826 1113.99 215.394C1113.99 215.957 1114.08 216.468 1114.24 216.927C1114.4 217.386 1114.65 217.752 1114.98 218.026C1115.31 218.296 1115.73 218.43 1116.23 218.43ZM1123.83 220L1121.21 210.727H1123.44L1125.07 217.247H1125.15L1126.82 210.727H1129.02L1130.69 217.211H1130.78L1132.38 210.727H1134.62L1131.99 220H1129.71L1127.98 213.734H1127.85L1126.11 220H1123.83ZM1137.99 214.567V220H1135.8V210.727H1137.89V212.303H1138C1138.21 211.784 1138.55 211.371 1139.02 211.065C1139.49 210.759 1140.07 210.607 1140.76 210.607C1141.4 210.607 1141.96 210.743 1142.44 211.017C1142.92 211.291 1143.29 211.687 1143.55 212.206C1143.81 212.725 1143.94 213.355 1143.94 214.096V220H1141.75V214.434C1141.75 213.814 1141.59 213.329 1141.27 212.979C1140.95 212.629 1140.51 212.454 1139.95 212.454C1139.57 212.454 1139.23 212.538 1138.93 212.707C1138.64 212.872 1138.4 213.112 1138.24 213.426C1138.07 213.74 1137.99 214.12 1137.99 214.567ZM1148.01 207.636V220H1145.82V207.636H1148.01ZM1153.96 220.181C1153.05 220.181 1152.27 219.982 1151.6 219.583C1150.94 219.185 1150.43 218.628 1150.06 217.911C1149.7 217.195 1149.52 216.358 1149.52 215.4C1149.52 214.442 1149.7 213.603 1150.06 212.882C1150.43 212.162 1150.94 211.603 1151.6 211.204C1152.27 210.806 1153.05 210.607 1153.96 210.607C1154.86 210.607 1155.65 210.806 1156.31 211.204C1156.98 211.603 1157.49 212.162 1157.85 212.882C1158.22 213.603 1158.4 214.442 1158.4 215.4C1158.4 216.358 1158.22 217.195 1157.85 217.911C1157.49 218.628 1156.98 219.185 1156.31 219.583C1155.65 219.982 1154.86 220.181 1153.96 220.181ZM1153.97 218.43C1154.46 218.43 1154.87 218.296 1155.2 218.026C1155.53 217.752 1155.78 217.386 1155.94 216.927C1156.1 216.468 1156.19 215.957 1156.19 215.394C1156.19 214.826 1156.1 214.313 1155.94 213.854C1155.78 213.392 1155.53 213.023 1155.2 212.75C1154.87 212.476 1154.46 212.339 1153.97 212.339C1153.47 212.339 1153.05 212.476 1152.72 212.75C1152.39 213.023 1152.14 213.392 1151.97 213.854C1151.81 214.313 1151.73 214.826 1151.73 215.394C1151.73 215.957 1151.81 216.468 1151.97 216.927C1152.14 217.386 1152.39 217.752 1152.72 218.026C1153.05 218.296 1153.47 218.43 1153.97 218.43ZM1162.59 220.187C1162 220.187 1161.47 220.083 1161 219.873C1160.53 219.66 1160.16 219.346 1159.89 218.931C1159.62 218.517 1159.48 218.006 1159.48 217.398C1159.48 216.875 1159.58 216.442 1159.77 216.1C1159.97 215.758 1160.23 215.484 1160.56 215.279C1160.9 215.074 1161.27 214.919 1161.69 214.814C1162.11 214.706 1162.55 214.627 1163 214.579C1163.55 214.522 1163.99 214.472 1164.32 214.428C1164.66 214.38 1164.91 214.307 1165.06 214.211C1165.22 214.11 1165.3 213.955 1165.3 213.746V213.71C1165.3 213.255 1165.16 212.903 1164.89 212.653C1164.62 212.404 1164.23 212.279 1163.73 212.279C1163.19 212.279 1162.77 212.395 1162.45 212.629C1162.14 212.862 1161.93 213.138 1161.82 213.456L1159.78 213.166C1159.95 212.603 1160.21 212.132 1160.58 211.754C1160.95 211.371 1161.4 211.085 1161.94 210.896C1162.47 210.703 1163.07 210.607 1163.71 210.607C1164.16 210.607 1164.61 210.659 1165.05 210.763C1165.49 210.868 1165.9 211.041 1166.26 211.283C1166.63 211.52 1166.92 211.844 1167.14 212.255C1167.37 212.665 1167.48 213.178 1167.48 213.794V220H1165.38V218.726H1165.31C1165.18 218.984 1164.99 219.225 1164.75 219.451C1164.51 219.672 1164.21 219.851 1163.85 219.988C1163.49 220.121 1163.07 220.187 1162.59 220.187ZM1163.15 218.581C1163.59 218.581 1163.97 218.495 1164.29 218.322C1164.62 218.145 1164.86 217.911 1165.04 217.621C1165.21 217.332 1165.3 217.016 1165.3 216.674V215.581C1165.23 215.637 1165.12 215.69 1164.95 215.738C1164.79 215.786 1164.61 215.828 1164.41 215.865C1164.21 215.901 1164.01 215.933 1163.81 215.961C1163.61 215.989 1163.44 216.014 1163.3 216.034C1162.97 216.078 1162.68 216.15 1162.42 216.251C1162.16 216.352 1161.96 216.493 1161.81 216.674C1161.66 216.851 1161.59 217.08 1161.59 217.362C1161.59 217.764 1161.74 218.068 1162.03 218.273C1162.32 218.479 1162.7 218.581 1163.15 218.581ZM1172.78 220.163C1172.05 220.163 1171.4 219.976 1170.82 219.602C1170.25 219.227 1169.79 218.684 1169.46 217.972C1169.13 217.259 1168.96 216.394 1168.96 215.376C1168.96 214.345 1169.13 213.476 1169.47 212.768C1169.81 212.055 1170.27 211.518 1170.85 211.156C1171.43 210.79 1172.07 210.607 1172.79 210.607C1173.33 210.607 1173.78 210.699 1174.13 210.884C1174.48 211.065 1174.75 211.285 1174.96 211.542C1175.16 211.796 1175.32 212.035 1175.44 212.261H1175.53V207.636H1177.72V220H1175.57V218.539H1175.44C1175.32 218.764 1175.16 219.004 1174.95 219.257C1174.73 219.507 1174.45 219.72 1174.1 219.897C1173.75 220.074 1173.31 220.163 1172.78 220.163ZM1173.39 218.37C1173.85 218.37 1174.25 218.245 1174.57 217.996C1174.9 217.742 1175.15 217.39 1175.32 216.939C1175.48 216.489 1175.57 215.963 1175.57 215.364C1175.57 214.764 1175.48 214.243 1175.32 213.8C1175.15 213.357 1174.9 213.013 1174.58 212.768C1174.26 212.522 1173.86 212.4 1173.39 212.4C1172.9 212.4 1172.5 212.526 1172.17 212.78C1171.84 213.033 1171.6 213.384 1171.43 213.83C1171.27 214.277 1171.19 214.788 1171.19 215.364C1171.19 215.943 1171.27 216.46 1171.43 216.915C1171.6 217.366 1171.85 217.722 1172.18 217.984C1172.51 218.241 1172.91 218.37 1173.39 218.37Z" fill="white"/>
<path d="M419.88 29.2354C418.886 29.2354 418.033 28.9839 417.32 28.4808C416.612 27.9737 416.067 27.2433 415.684 26.2894C415.306 25.3316 415.117 24.1785 415.117 22.8303C415.121 21.482 415.312 20.335 415.69 19.3892C416.073 18.4394 416.618 17.715 417.326 17.2159C418.039 16.7169 418.89 16.4673 419.88 16.4673C420.87 16.4673 421.721 16.7169 422.434 17.2159C423.146 17.715 423.691 18.4394 424.07 19.3892C424.452 20.339 424.643 21.486 424.643 22.8303C424.643 24.1825 424.452 25.3376 424.07 26.2955C423.691 27.2493 423.146 27.9777 422.434 28.4808C421.725 28.9839 420.874 29.2354 419.88 29.2354ZM419.88 27.3459C420.653 27.3459 421.262 26.9656 421.709 26.2049C422.16 25.4402 422.385 24.3153 422.385 22.8303C422.385 21.8482 422.283 21.0232 422.077 20.3551C421.872 19.687 421.582 19.1839 421.208 18.8459C420.834 18.5038 420.391 18.3327 419.88 18.3327C419.111 18.3327 418.504 18.7151 418.057 19.4798C417.61 20.2404 417.385 21.3572 417.381 22.8303C417.377 23.8163 417.475 24.6454 417.676 25.3175C417.882 25.9896 418.171 26.4967 418.546 26.8388C418.92 27.1768 419.365 27.3459 419.88 27.3459ZM427.329 29V27.3821L431.621 23.1744C432.032 22.7598 432.374 22.3916 432.647 22.0696C432.921 21.7476 433.126 21.4357 433.263 21.1339C433.4 20.832 433.468 20.5101 433.468 20.168C433.468 19.7776 433.38 19.4435 433.203 19.1658C433.026 18.8841 432.782 18.6668 432.472 18.5138C432.162 18.3609 431.81 18.2844 431.416 18.2844C431.009 18.2844 430.653 18.369 430.347 18.538C430.041 18.703 429.804 18.9384 429.635 19.2443C429.47 19.5502 429.387 19.9144 429.387 20.337H427.256C427.256 19.5522 427.436 18.87 427.794 18.2905C428.152 17.7109 428.645 17.2622 429.273 16.9442C429.905 16.6263 430.629 16.4673 431.446 16.4673C432.275 16.4673 433.004 16.6223 433.631 16.9322C434.259 17.2421 434.746 17.6667 435.092 18.206C435.442 18.7453 435.618 19.361 435.618 20.0533C435.618 20.5161 435.529 20.9709 435.352 21.4176C435.175 21.8643 434.863 22.3594 434.416 22.9027C433.974 23.446 433.352 24.104 432.551 24.8768L430.42 27.044V27.1286H435.805V29H427.329Z" fill="white"/>
<path d="M975.998 154.235C975.004 154.235 974.151 153.984 973.438 153.481C972.73 152.974 972.185 152.243 971.802 151.289C971.424 150.332 971.235 149.179 971.235 147.83C971.239 146.482 971.43 145.335 971.808 144.389C972.191 143.439 972.736 142.715 973.444 142.216C974.157 141.717 975.008 141.467 975.998 141.467C976.988 141.467 977.839 141.717 978.552 142.216C979.264 142.715 979.809 143.439 980.188 144.389C980.57 145.339 980.761 146.486 980.761 147.83C980.761 149.183 980.57 150.338 980.188 151.295C979.809 152.249 979.264 152.978 978.552 153.481C977.843 153.984 976.992 154.235 975.998 154.235ZM975.998 152.346C976.771 152.346 977.381 151.966 977.827 151.205C978.278 150.44 978.503 149.315 978.503 147.83C978.503 146.848 978.401 146.023 978.196 145.355C977.99 144.687 977.701 144.184 977.326 143.846C976.952 143.504 976.509 143.333 975.998 143.333C975.229 143.333 974.622 143.715 974.175 144.48C973.728 145.24 973.503 146.357 973.499 147.83C973.495 148.816 973.593 149.645 973.795 150.317C974 150.99 974.29 151.497 974.664 151.839C975.038 152.177 975.483 152.346 975.998 152.346ZM983.224 151.706V149.925L988.47 141.636H989.955V144.172H989.049L985.518 149.768V149.865H992.84V151.706H983.224ZM989.122 154V151.163L989.146 150.366V141.636H991.259V154H989.122Z" fill="white"/>
<path d="M1133.78 184.235C1132.79 184.235 1131.93 183.984 1131.22 183.481C1130.51 182.974 1129.97 182.243 1129.58 181.289C1129.21 180.332 1129.02 179.179 1129.02 177.83C1129.02 176.482 1129.21 175.335 1129.59 174.389C1129.97 173.439 1130.52 172.715 1131.23 172.216C1131.94 171.717 1132.79 171.467 1133.78 171.467C1134.77 171.467 1135.62 171.717 1136.33 172.216C1137.05 172.715 1137.59 173.439 1137.97 174.389C1138.35 175.339 1138.54 176.486 1138.54 177.83C1138.54 179.183 1138.35 180.338 1137.97 181.295C1137.59 182.249 1137.05 182.978 1136.33 183.481C1135.63 183.984 1134.77 184.235 1133.78 184.235ZM1133.78 182.346C1134.55 182.346 1135.16 181.966 1135.61 181.205C1136.06 180.44 1136.29 179.315 1136.29 177.83C1136.29 176.848 1136.18 176.023 1135.98 175.355C1135.77 174.687 1135.48 174.184 1135.11 173.846C1134.73 173.504 1134.29 173.333 1133.78 173.333C1133.01 173.333 1132.4 173.715 1131.96 174.48C1131.51 175.24 1131.29 176.357 1131.28 177.83C1131.28 178.816 1131.38 179.645 1131.58 180.317C1131.78 180.99 1132.07 181.497 1132.45 181.839C1132.82 182.177 1133.27 182.346 1133.78 182.346ZM1145.53 184.169C1144.72 184.169 1144 184.018 1143.37 183.716C1142.73 183.41 1142.23 182.992 1141.85 182.461C1141.48 181.929 1141.28 181.322 1141.26 180.637H1143.43C1143.47 181.145 1143.69 181.559 1144.09 181.881C1144.49 182.199 1144.97 182.358 1145.53 182.358C1145.97 182.358 1146.36 182.257 1146.7 182.056C1147.04 181.855 1147.31 181.575 1147.51 181.217C1147.7 180.859 1147.8 180.45 1147.8 179.991C1147.8 179.525 1147.7 179.11 1147.5 178.748C1147.3 178.386 1147.02 178.102 1146.67 177.897C1146.32 177.687 1145.92 177.583 1145.47 177.583C1145.1 177.579 1144.73 177.647 1144.37 177.788C1144.02 177.929 1143.73 178.114 1143.52 178.343L1141.5 178.011L1142.15 171.636H1149.32V173.508H1144L1143.64 176.786H1143.72C1143.95 176.516 1144.27 176.293 1144.69 176.116C1145.11 175.935 1145.57 175.844 1146.06 175.844C1146.81 175.844 1147.48 176.021 1148.07 176.375C1148.66 176.725 1149.12 177.208 1149.46 177.824C1149.8 178.44 1149.96 179.144 1149.96 179.937C1149.96 180.754 1149.78 181.483 1149.4 182.123C1149.02 182.758 1148.5 183.259 1147.83 183.626C1147.17 183.988 1146.4 184.169 1145.53 184.169Z" fill="white"/>
<path d="M97.0753 158.235C96.0812 158.235 95.228 157.984 94.5156 157.481C93.8073 156.974 93.2619 156.243 92.8796 155.289C92.5013 154.332 92.3121 153.179 92.3121 151.83C92.3161 150.482 92.5073 149.335 92.8856 148.389C93.268 147.439 93.8133 146.715 94.5216 146.216C95.234 145.717 96.0852 145.467 97.0753 145.467C98.0653 145.467 98.9165 145.717 99.6289 146.216C100.341 146.715 100.887 147.439 101.265 148.389C101.647 149.339 101.838 150.486 101.838 151.83C101.838 153.183 101.647 154.338 101.265 155.295C100.887 156.249 100.341 156.978 99.6289 157.481C98.9205 157.984 98.0693 158.235 97.0753 158.235ZM97.0753 156.346C97.848 156.346 98.4577 155.966 98.9045 155.205C99.3552 154.44 99.5806 153.315 99.5806 151.83C99.5806 150.848 99.478 150.023 99.2727 149.355C99.0674 148.687 98.7777 148.184 98.4034 147.846C98.0291 147.504 97.5864 147.333 97.0753 147.333C96.3066 147.333 95.6988 147.715 95.2521 148.48C94.8054 149.24 94.58 150.357 94.576 151.83C94.5719 152.816 94.6705 153.645 94.8718 154.317C95.077 154.99 95.3668 155.497 95.7411 155.839C96.1154 156.177 96.5601 156.346 97.0753 156.346ZM109.553 145.636V158H107.313V147.816H107.241L104.349 149.663V147.61L107.422 145.636H109.553Z" fill="white"/>
</g>
<defs>
<filter id="filter0_f_0_3" x="490.818" y="-59.958" width="366" height="352" filterUnits="userSpaceOnUse" color-interpolation-filters="sRGB">
<feFlood flood-opacity="0" result="BackgroundImageFix"/>
<feBlend mode="normal" in="SourceGraphic" in2="BackgroundImageFix" result="shape"/>
<feGaussianBlur stdDeviation="36" result="effect1_foregroundBlur_0_3"/>
</filter>
<filter id="filter1_f_0_3" x="469.818" y="153.042" width="392" height="378" filterUnits="userSpaceOnUse" color-interpolation-filters="sRGB">
<feFlood flood-opacity="0" result="BackgroundImageFix"/>
<feBlend mode="normal" in="SourceGraphic" in2="BackgroundImageFix" result="shape"/>
<feGaussianBlur stdDeviation="42.5" result="effect1_foregroundBlur_0_3"/>
</filter>
<filter id="filter2_f_0_3" x="699.818" y="174.042" width="366" height="352" filterUnits="userSpaceOnUse" color-interpolation-filters="sRGB">
<feFlood flood-opacity="0" result="BackgroundImageFix"/>
<feBlend mode="normal" in="SourceGraphic" in2="BackgroundImageFix" result="shape"/>
<feGaussianBlur stdDeviation="36" result="effect1_foregroundBlur_0_3"/>
</filter>
<filter id="filter3_f_0_3" x="699.818" y="-89.958" width="392" height="378" filterUnits="userSpaceOnUse" color-interpolation-filters="sRGB">
<feFlood flood-opacity="0" result="BackgroundImageFix"/>
<feBlend mode="normal" in="SourceGraphic" in2="BackgroundImageFix" result="shape"/>
<feGaussianBlur stdDeviation="42.5" result="effect1_foregroundBlur_0_3"/>
</filter>
<filter id="filter4_f_0_3" x="-67.182" y="-314.958" width="1094" height="1074" filterUnits="userSpaceOnUse" color-interpolation-filters="sRGB">
<feFlood flood-opacity="0" result="BackgroundImageFix"/>
<feBlend mode="normal" in="SourceGraphic" in2="BackgroundImageFix" result="shape"/>
<feGaussianBlur stdDeviation="184" result="effect1_foregroundBlur_0_3"/>
</filter>
<filter id="filter5_df_0_3" x="314.818" y="-120.958" width="543" height="675" filterUnits="userSpaceOnUse" color-interpolation-filters="sRGB">
<feFlood flood-opacity="0" result="BackgroundImageFix"/>
<feColorMatrix in="SourceAlpha" type="matrix" values="0 0 0 0 0 0 0 0 0 0 0 0 0 0 0 0 0 0 127 0" result="hardAlpha"/>
<feOffset dy="4"/>
<feGaussianBlur stdDeviation="2"/>
<feComposite in2="hardAlpha" operator="out"/>
<feColorMatrix type="matrix" values="0 0 0 0 0 0 0 0 0 0 0 0 0 0 0 0 0 0 0.25 0"/>
<feBlend mode="normal" in2="BackgroundImageFix" result="effect1_dropShadow_0_3"/>
<feBlend mode="normal" in="SourceGraphic" in2="effect1_dropShadow_0_3" result="shape"/>
<feGaussianBlur stdDeviation="81" result="effect2_foregroundBlur_0_3"/>
</filter>
<linearGradient id="paint0_linear_0_3" x1="931.932" y1="98.8014" x2="1030.01" y2="348.311" gradientUnits="userSpaceOnUse">
<stop stop-color="#666666"/>
<stop offset="0.520392" stop-opacity="0"/>
<stop offset="1" stop-color="#666666"/>
</linearGradient>
<linearGradient id="paint1_linear_0_3" x1="42.7547" y1="86.6462" x2="158.873" y2="382.042" gradientUnits="userSpaceOnUse">
<stop stop-color="#666666"/>
<stop offset="0.520392"/>
<stop offset="1" stop-color="#666666"/>
</linearGradient>
<linearGradient id="paint2_linear_0_3" x1="282.5" y1="233" x2="452" y2="233" gradientUnits="userSpaceOnUse">
<stop stop-color="#0F0F0F" stop-opacity="0.1"/>
<stop offset="1" stop-color="white" stop-opacity="0.08"/>
</linearGradient>
<clipPath id="clip0_0_3">
<rect width="1218" height="447" fill="white"/>
</clipPath>
</defs>
</svg>
